<?xml version="1.0" encoding="UTF-8" standalone="no"?>
<!-- Created with Inkscape (http://www.inkscape.org/) -->

<svg
   width="145mm"
   height="60mm"
   viewBox="0 0 145 60"
   version="1.1"
   id="svg1"
   xml:space="preserve"
   inkscape:version="1.4 (86a8ad7, 2024-10-11)"
   sodipodi:docname="tri_selection.svg"
   xmlns:inkscape="http://www.inkscape.org/namespaces/inkscape"
   xmlns:sodipodi="http://sodipodi.sourceforge.net/DTD/sodipodi-0.dtd"
   xmlns="http://www.w3.org/2000/svg"
   xmlns:svg="http://www.w3.org/2000/svg"><sodipodi:namedview
     id="namedview1"
     pagecolor="#ffffff"
     bordercolor="#000000"
     borderopacity="0.25"
     inkscape:showpageshadow="2"
     inkscape:pageopacity="0.0"
     inkscape:pagecheckerboard="0"
     inkscape:deskcolor="#d1d1d1"
     inkscape:document-units="mm"
     inkscape:zoom="1.4520903"
     inkscape:cx="310.2424"
     inkscape:cy="204.87706"
     inkscape:window-width="1920"
     inkscape:window-height="1017"
     inkscape:window-x="-8"
     inkscape:window-y="-8"
     inkscape:window-maximized="1"
     inkscape:current-layer="text12" /><defs
     id="defs1"><marker
       style="overflow:visible"
       id="Dot"
       refX="0"
       refY="0"
       orient="auto"
       inkscape:stockid="Dot"
       markerWidth="0.80000001"
       markerHeight="0.80000001"
       viewBox="0 0 1 1"
       inkscape:isstock="true"
       inkscape:collect="always"
       preserveAspectRatio="xMidYMid"><path
         transform="scale(0.5)"
         style="fill:context-stroke;fill-rule:evenodd;stroke:none"
         d="M 5,0 C 5,2.76 2.76,5 0,5 -2.76,5 -5,2.76 -5,0 c 0,-2.76 2.3,-5 5,-5 2.76,0 5,2.24 5,5 z"
         sodipodi:nodetypes="sssss"
         id="path17" /></marker><marker
       style="overflow:visible"
       id="ConcaveTriangle"
       refX="0"
       refY="0"
       orient="auto-start-reverse"
       inkscape:stockid="Concave triangle arrow"
       markerWidth="0.5"
       markerHeight="0.5"
       viewBox="0 0 1 1"
       inkscape:isstock="true"
       inkscape:collect="always"
       preserveAspectRatio="xMidYMid"><path
         transform="scale(0.7)"
         d="M -2,-4 9,0 -2,4 c 2,-2.33 2,-5.66 0,-8 z"
         style="fill:context-stroke;fill-rule:evenodd;stroke:none"
         id="path8" /></marker></defs><g
     inkscape:label="Calque 1"
     inkscape:groupmode="layer"
     id="layer1"><g
       id="g4"
       inkscape:label="partie triée"
       transform="translate(-36.729298,-113.57285)"><rect
         style="fill:#c0c0ff;fill-opacity:1;stroke:#000000;stroke-width:0.900003;stroke-linecap:square;stroke-linejoin:round;stroke-dasharray:none;stroke-opacity:1;paint-order:markers fill stroke"
         id="rect1"
         width="58.306751"
         height="13.665644"
         x="38.684563"
         y="129.66867" /><path
         style="font-size:5.64444px;font-family:Consolas;-inkscape-font-specification:Consolas;stroke-width:0.9;stroke-linecap:square;stroke-linejoin:round;paint-order:markers fill stroke"
         d="m 44.518773,137.89331 q -0.162608,0.0413 -0.336241,0.0579 -0.173633,0.0193 -0.352778,0.0193 -0.520898,0 -0.777213,-0.23427 -0.256315,-0.23702 -0.256315,-0.72485 v -1.44418 H 42.02177 v -0.40239 h 0.774456 v -0.76068 l 0.479557,-0.12402 v 0.8847 h 1.24299 v 0.40239 h -1.24299 v 1.4056 q 0,0.29765 0.157097,0.44648 0.159852,0.14607 0.468532,0.14607 0.132292,0 0.289388,-0.0193 0.157096,-0.0221 0.327973,-0.0662 z m 2.742294,1.16858 h -1.358745 v -5.12079 h 1.358745 v 0.38585 h -0.901236 v 4.34909 h 0.901236 z m 3.654554,-2.92971 q 0,0.41341 -0.08268,0.75517 -0.08268,0.339 -0.250803,0.58429 -0.16812,0.24253 -0.418923,0.37758 -0.248047,0.13229 -0.584288,0.13229 -0.289387,0 -0.52641,-0.10749 -0.237022,-0.11024 -0.405143,-0.33624 -0.16812,-0.226 -0.259071,-0.57602 -0.09095,-0.35002 -0.09095,-0.82958 0,-0.41341 0.08268,-0.75516 0.08544,-0.34175 0.250803,-0.58429 0.16812,-0.24529 0.418923,-0.37758 0.250803,-0.13505 0.584288,-0.13505 0.289388,0 0.52641,0.11024 0.237022,0.10749 0.405143,0.33625 0.16812,0.22599 0.259071,0.57602 0.09095,0.35002 0.09095,0.82957 z m -0.485069,0.0165 q 0,-0.0937 -0.0083,-0.18466 -0.0055,-0.0937 -0.01378,-0.1819 l -1.524109,1.13275 q 0.04134,0.14331 0.10473,0.26458 0.06339,0.12127 0.151585,0.20946 0.09095,0.0854 0.203949,0.13505 0.115755,0.0469 0.261827,0.0469 0.187413,0 0.338997,-0.091 0.15434,-0.0909 0.261827,-0.27009 0.107487,-0.17915 0.165365,-0.44373 0.05788,-0.26734 0.05788,-0.61736 z m -1.648132,-0.0331 q 0,0.0854 0,0.17087 0.0028,0.0854 0.01102,0.16537 l 1.524109,-1.12724 q -0.04134,-0.14056 -0.104731,-0.25631 -0.06339,-0.11576 -0.151584,-0.19844 -0.08819,-0.0854 -0.201193,-0.13229 -0.112999,-0.0468 -0.253559,-0.0468 -0.187413,0 -0.341753,0.0909 -0.151584,0.0909 -0.259071,0.27285 -0.107487,0.17914 -0.165365,0.44648 -0.05788,0.26459 -0.05788,0.61461 z m 4.528229,2.94624 h -1.358744 v -0.38585 h 0.895724 v -4.34909 h -0.895724 v -0.38585 h 1.358744 z m 1.606792,-0.56499 q 0.14056,0.006 0.272852,-0.0248 0.132291,-0.0303 0.23151,-0.091 0.101975,-0.0579 0.162608,-0.14607 0.06063,-0.0882 0.06063,-0.2012 0,-0.11575 -0.04134,-0.18741 -0.03858,-0.0717 -0.08819,-0.13229 -0.04961,-0.0606 -0.09095,-0.12954 -0.03859,-0.0689 -0.03859,-0.18465 0,-0.0579 0.02205,-0.12127 0.02205,-0.0634 0.06614,-0.11575 0.04685,-0.0524 0.115755,-0.0854 0.07166,-0.0331 0.168121,-0.0331 0.09646,0 0.184657,0.0413 0.09095,0.0386 0.157096,0.12126 0.0689,0.0827 0.107487,0.20671 0.04134,0.12402 0.04134,0.29214 0,0.22876 -0.08544,0.43822 -0.08268,0.21222 -0.250803,0.37482 -0.165364,0.16261 -0.416167,0.25907 -0.248047,0.0965 -0.578776,0.0965 z m 7.080354,-1.43316 q 0.09371,0 0.176389,0.0358 0.08544,0.0358 0.146072,0.0992 0.06339,0.0634 0.09922,0.14883 0.03583,0.0827 0.03583,0.17915 0,0.0937 -0.03583,0.17639 -0.03583,0.0827 -0.09922,0.14607 -0.06063,0.0606 -0.146072,0.0965 -0.08268,0.0358 -0.176389,0.0358 -0.09646,0 -0.179145,-0.0358 -0.08268,-0.0358 -0.146072,-0.0965 -0.06063,-0.0634 -0.09646,-0.14607 -0.03583,-0.0827 -0.03583,-0.17639 0,-0.0965 0.03583,-0.17915 0.03583,-0.0854 0.09646,-0.14883 0.06339,-0.0634 0.146072,-0.0992 0.08268,-0.0358 0.179145,-0.0358 z m 3.10334,0 q 0.09371,0 0.176389,0.0358 0.08544,0.0358 0.146072,0.0992 0.06339,0.0634 0.09922,0.14883 0.03583,0.0827 0.03583,0.17915 0,0.0937 -0.03583,0.17639 -0.03583,0.0827 -0.09922,0.14607 -0.06063,0.0606 -0.146072,0.0965 -0.08268,0.0358 -0.176389,0.0358 -0.09646,0 -0.179144,-0.0358 -0.08268,-0.0358 -0.146072,-0.0965 -0.06063,-0.0634 -0.09646,-0.14607 -0.03583,-0.0827 -0.03583,-0.17639 0,-0.0965 0.03583,-0.17915 0.03583,-0.0854 0.09646,-0.14883 0.06339,-0.0634 0.146072,-0.0992 0.08268,-0.0358 0.179144,-0.0358 z m 3.103341,0 q 0.09371,0 0.176388,0.0358 0.08544,0.0358 0.146072,0.0992 0.06339,0.0634 0.09922,0.14883 0.03583,0.0827 0.03583,0.17915 0,0.0937 -0.03583,0.17639 -0.03583,0.0827 -0.09922,0.14607 -0.06063,0.0606 -0.146072,0.0965 -0.08268,0.0358 -0.176388,0.0358 -0.09646,0 -0.179145,-0.0358 -0.08268,-0.0358 -0.146072,-0.0965 -0.06063,-0.0634 -0.09646,-0.14607 -0.03583,-0.0827 -0.03583,-0.17639 0,-0.0965 0.03583,-0.17915 0.03583,-0.0854 0.09646,-0.14883 0.06339,-0.0634 0.146072,-0.0992 0.08268,-0.0358 0.179145,-0.0358 z m 2.229664,1.43316 q 0.14056,0.006 0.272851,-0.0248 0.132292,-0.0303 0.231511,-0.091 0.101974,-0.0579 0.162608,-0.14607 0.06063,-0.0882 0.06063,-0.2012 0,-0.11575 -0.04134,-0.18741 -0.03858,-0.0717 -0.08819,-0.13229 -0.04961,-0.0606 -0.09095,-0.12954 -0.03859,-0.0689 -0.03859,-0.18465 0,-0.0579 0.02205,-0.12127 0.02205,-0.0634 0.06615,-0.11575 0.04685,-0.0524 0.115755,-0.0854 0.07166,-0.0331 0.168121,-0.0331 0.09646,0 0.184657,0.0413 0.09095,0.0386 0.157096,0.12126 0.0689,0.0827 0.107487,0.20671 0.04134,0.12402 0.04134,0.29214 0,0.22876 -0.08544,0.43822 -0.08268,0.21222 -0.250803,0.37482 -0.165365,0.16261 -0.416167,0.25907 -0.248047,0.0965 -0.578776,0.0965 z m 8.221371,-0.60359 q -0.162609,0.0413 -0.336241,0.0579 -0.173633,0.0193 -0.352778,0.0193 -0.520898,0 -0.777213,-0.23427 -0.256315,-0.23702 -0.256315,-0.72485 v -1.44418 h -0.774457 v -0.40239 h 0.774457 v -0.76068 l 0.479557,-0.12402 v 0.8847 h 1.24299 v 0.40239 h -1.24299 v 1.4056 q 0,0.29765 0.157096,0.44648 0.159853,0.14607 0.468533,0.14607 0.132292,0 0.289388,-0.0193 0.157096,-0.0221 0.327973,-0.0662 z m 2.74229,1.16858 h -1.358744 v -5.12079 h 1.358744 v 0.38585 h -0.901236 v 4.34909 h 0.901236 z m 2.1773,-3.50021 h -0.818555 v -0.39688 h 1.303624 v 2.36747 h 0.824066 v 0.39963 h -2.21864 v -0.39963 h 0.909505 z m 0.16812,-1.55719 q 0.07993,0 0.148828,0.0303 0.0689,0.0276 0.118511,0.0799 0.05237,0.0524 0.07993,0.12126 0.03032,0.0662 0.03032,0.14608 0,0.0772 -0.03032,0.14607 -0.02756,0.0689 -0.07993,0.12127 -0.04961,0.0524 -0.118511,0.0827 -0.0689,0.0276 -0.148828,0.0276 -0.07993,0 -0.148828,-0.0276 -0.0689,-0.0303 -0.121267,-0.0827 -0.04961,-0.0524 -0.07993,-0.12127 -0.02756,-0.0689 -0.02756,-0.14607 0,-0.0799 0.02756,-0.14608 0.03032,-0.0689 0.07993,-0.12126 0.05237,-0.0524 0.121267,-0.0799 0.0689,-0.0303 0.148828,-0.0303 z m 3.927406,2.65135 h -1.648132 v -0.452 h 1.648132 z m 3.475411,1.27606 h -2.262737 v -0.44648 h 0.926041 v -2.6293 l -0.862652,0.46853 -0.176388,-0.4079 1.146526,-0.60358 h 0.424436 v 3.17225 h 0.804774 z m 2.508028,1.12999 h -1.358745 v -0.38585 h 0.895724 v -4.34909 h -0.895724 v -0.38585 h 1.358745 z"
         id="text1"
         aria-label="t[0], ..., t[i-1]" /><text
         xml:space="preserve"
         style="font-style:normal;font-variant:normal;font-weight:normal;font-stretch:normal;font-size:6.35px;font-family:Consolas;-inkscape-font-specification:Consolas;text-align:start;writing-mode:lr-tb;direction:ltr;text-anchor:start;fill:none;fill-opacity:1;stroke:#000000;stroke-width:0.899999;stroke-linecap:square;stroke-linejoin:round;stroke-dasharray:none;stroke-opacity:1;paint-order:markers fill stroke"
         x="52.60321"
         y="151.96196"
         id="text9"><tspan
           sodipodi:role="line"
           id="tspan9"
           style="font-style:normal;font-variant:normal;font-weight:normal;font-stretch:normal;font-size:6.35px;font-family:Cambria;-inkscape-font-specification:Cambria;fill:#000000;stroke:none;stroke-width:0.9"
           x="52.60321"
           y="151.96196">Partie triée</tspan></text></g><g
       id="g5"
       inkscape:label="partie non triée"
       transform="translate(21.479067,-113.57285)"
       style="display:inline"><text
         xml:space="preserve"
         style="font-style:normal;font-variant:normal;font-weight:normal;font-stretch:normal;font-size:6.35px;font-family:Consolas;-inkscape-font-specification:Consolas;text-align:start;writing-mode:lr-tb;direction:ltr;text-anchor:start;fill:none;fill-opacity:1;stroke:#000000;stroke-width:0.899999;stroke-linecap:square;stroke-linejoin:round;stroke-dasharray:none;stroke-opacity:1;paint-order:markers fill stroke"
         x="134.09482"
         y="151.96196"
         id="text10"
         transform="translate(-58.208364)"><tspan
           sodipodi:role="line"
           id="tspan10"
           style="font-style:normal;font-variant:normal;font-weight:normal;font-stretch:normal;font-size:6.35px;font-family:Cambria;-inkscape-font-specification:Cambria;fill:#000000;stroke:none;stroke-width:0.9"
           x="134.09482"
           y="151.96196">Partie non triée</tspan></text><rect
         style="fill:#000000;fill-opacity:0;stroke:#000000;stroke-width:0.900003;stroke-linecap:square;stroke-linejoin:round;stroke-dasharray:none;stroke-opacity:1;paint-order:markers fill stroke"
         id="rect4"
         width="83.08712"
         height="13.665644"
         x="38.684563"
         y="129.66867" /><g
         id="g6"
         inkscape:label="t[i]"><rect
           style="fill:#0000ff;fill-opacity:1;stroke:#000000;stroke-width:0.900005;stroke-linecap:square;stroke-linejoin:round;stroke-dasharray:none;stroke-opacity:1;paint-order:markers fill stroke"
           id="rect5"
           width="13.665998"
           height="13.665998"
           x="38.684563"
           y="129.66867" /><path
           style="font-size:5.64444px;font-family:Consolas;-inkscape-font-specification:Consolas;fill:#ffff00;stroke-width:0.9;stroke-linecap:square;stroke-linejoin:round;paint-order:markers fill stroke"
           d="m 42.370126,137.89348 q -0.162609,0.0413 -0.336241,0.0579 -0.173633,0.0193 -0.352778,0.0193 -0.520898,0 -0.777213,-0.23426 -0.256315,-0.23703 -0.256315,-0.72485 v -1.44418 h -0.774457 v -0.40239 h 0.774457 v -0.76068 l 0.479557,-0.12402 v 0.8847 h 1.24299 v 0.40239 h -1.24299 v 1.40559 q 0,0.29766 0.157096,0.44649 0.159853,0.14607 0.468533,0.14607 0.132292,0 0.289388,-0.0193 0.157096,-0.0221 0.327973,-0.0661 z m 2.742294,1.16858 h -1.358745 v -5.12079 h 1.358745 v 0.38585 h -0.901237 v 4.34909 h 0.901237 z m 2.177298,-3.50022 h -0.818554 v -0.39687 h 1.303623 v 2.36747 h 0.824067 v 0.39963 h -2.21864 v -0.39963 h 0.909504 z m 0.168121,-1.55718 q 0.07993,0 0.148828,0.0303 0.0689,0.0276 0.118511,0.0799 0.05237,0.0524 0.07993,0.12127 0.03032,0.0662 0.03032,0.14607 0,0.0772 -0.03032,0.14608 -0.02756,0.0689 -0.07993,0.12126 -0.04961,0.0524 -0.118511,0.0827 -0.0689,0.0276 -0.148828,0.0276 -0.07993,0 -0.148828,-0.0276 -0.0689,-0.0303 -0.121268,-0.0827 -0.04961,-0.0524 -0.07993,-0.12126 -0.02756,-0.0689 -0.02756,-0.14608 0,-0.0799 0.02756,-0.14607 0.03032,-0.0689 0.07993,-0.12127 0.05237,-0.0524 0.121268,-0.0799 0.0689,-0.0303 0.148828,-0.0303 z m 3.704163,5.0574 h -1.358744 v -0.38585 h 0.895724 v -4.34909 h -0.895724 v -0.38585 h 1.358744 z"
           id="text4"
           aria-label="t[i]" /></g><g
         id="g7"
         inkscape:label="t[j]"
         transform="translate(29.633346)"><rect
           style="fill:#00ffff;fill-opacity:1;stroke:#000000;stroke-width:0.900005;stroke-linecap:square;stroke-linejoin:round;stroke-dasharray:none;stroke-opacity:1;paint-order:markers fill stroke"
           id="rect6"
           width="13.665998"
           height="13.665998"
           x="38.684563"
           y="129.66867" /><path
           style="font-size:5.64444px;font-family:Consolas;-inkscape-font-specification:Consolas;stroke-width:0.9;stroke-linecap:square;stroke-linejoin:round;paint-order:markers fill stroke"
           d="m 42.370126,137.89348 q -0.162609,0.0413 -0.336241,0.0579 -0.173633,0.0193 -0.352778,0.0193 -0.520898,0 -0.777213,-0.23426 -0.256315,-0.23703 -0.256315,-0.72485 v -1.44418 h -0.774457 v -0.40239 h 0.774457 v -0.76068 l 0.479557,-0.12402 v 0.8847 h 1.24299 v 0.40239 h -1.24299 v 1.40559 q 0,0.29766 0.157096,0.44649 0.159853,0.14607 0.468533,0.14607 0.132292,0 0.289388,-0.0193 0.157096,-0.0221 0.327973,-0.0661 z m 2.742294,1.16858 h -1.358745 v -5.12079 h 1.358745 v 0.38585 h -0.901237 v 4.34909 h 0.901237 z m 3.108851,-3.89709 v 2.71749 q 0,0.28939 -0.08268,0.51263 -0.08268,0.226 -0.237022,0.38034 -0.15434,0.15434 -0.380339,0.23426 -0.223242,0.0799 -0.504361,0.0799 -0.20395,0 -0.399631,-0.0386 -0.192925,-0.0358 -0.350021,-0.10197 v -0.45751 q 0.08544,0.0441 0.181901,0.0799 0.09922,0.0358 0.201193,0.0606 0.104731,0.0248 0.209462,0.0358 0.10473,0.0138 0.203949,0.0138 0.314193,0 0.493337,-0.19844 0.179145,-0.19843 0.179145,-0.58429 v -2.33715 h -1.355988 v -0.39687 z m -0.289387,-1.16031 q 0.07993,0 0.148828,0.0303 0.0689,0.0276 0.118511,0.0799 0.05236,0.0524 0.07993,0.12127 0.03032,0.0689 0.03032,0.14607 0,0.0799 -0.03032,0.14883 -0.02756,0.0661 -0.07993,0.11851 -0.04961,0.0524 -0.118511,0.0827 -0.0689,0.0276 -0.148828,0.0276 -0.07993,0 -0.148828,-0.0276 -0.0689,-0.0303 -0.121268,-0.0827 -0.04961,-0.0524 -0.07993,-0.11851 -0.02756,-0.0689 -0.02756,-0.14883 0,-0.0772 0.02756,-0.14607 0.03032,-0.0689 0.07993,-0.12127 0.05237,-0.0524 0.121268,-0.0799 0.0689,-0.0303 0.148828,-0.0303 z m 3.230118,5.0574 h -1.358744 v -0.38585 h 0.895724 v -4.34909 h -0.895724 v -0.38585 h 1.358744 z"
           id="text6"
           aria-label="t[j]" /></g><text
         xml:space="preserve"
         style="font-style:normal;font-variant:normal;font-weight:normal;font-stretch:normal;font-size:6.35px;font-family:Cambria;-inkscape-font-specification:Cambria;text-align:start;writing-mode:lr-tb;direction:ltr;text-anchor:start;display:inline;fill:#000000;fill-opacity:1;stroke:none;stroke-width:0.899999;stroke-linecap:square;stroke-linejoin:round;stroke-dasharray:none;stroke-opacity:1;paint-order:markers fill stroke"
         x="132.96384"
         y="129.87166"
         id="text11"
         transform="translate(-51.766318,-11.595684)"><tspan
           sodipodi:role="line"
           id="tspan11"
           style="stroke-width:0.9"
           x="132.96384"
           y="129.87166">minimum</tspan></text><path
         style="display:inline;fill:#000000;fill-opacity:1;stroke:#000000;stroke-width:0.6;stroke-linecap:square;stroke-linejoin:round;stroke-dasharray:none;stroke-opacity:1;marker-end:url(#Dot);paint-order:markers fill stroke"
         d="m 145.63166,130.90238 -14.17251,12.36873"
         id="path11"
         sodipodi:nodetypes="cc"
         transform="translate(-51.766318,-11.595684)" /><path
         style="fill:none;fill-opacity:1;stroke:#000000;stroke-width:0.899999;stroke-linecap:square;stroke-linejoin:round;stroke-dasharray:1.8, 1.8;stroke-dashoffset:0;stroke-opacity:1;marker-end:url(#ConcaveTriangle);paint-order:markers fill stroke"
         d="m 74.803903,129.22109 c 0,0 -0.727615,-12.42509 -15.123313,-12.42509 -14.395698,0 -14.758895,9.59706 -14.758895,9.59706"
         id="path7"
         sodipodi:nodetypes="czc" /><path
         style="fill:none;fill-opacity:1;stroke:#000000;stroke-width:0.900003;stroke-linecap:square;stroke-linejoin:round;stroke-dasharray:1.80001, 1.80001;stroke-dashoffset:0;stroke-opacity:1;marker-end:url(#ConcaveTriangle);paint-order:markers fill stroke"
         d="m 44.150538,143.66879 c 0,0 0.727615,12.95326 15.123313,12.95326 14.395698,0 14.758895,-10.03114 14.758895,-10.03114"
         id="path9"
         sodipodi:nodetypes="czc" /><path
         style="fill:#000000;fill-opacity:1;stroke:#000000;stroke-width:0.600001;stroke-linecap:square;stroke-linejoin:round;stroke-dasharray:none;stroke-dashoffset:0;stroke-opacity:1;paint-order:markers fill stroke"
         d="m 38.534562,142.9172 v 15.64486"
         id="path12"
         sodipodi:nodetypes="cc" /></g><g
       id="g17"
       inkscape:label="Condition"
       style="display:inline"
       transform="translate(21.479068,-113.57285)"><rect
         style="fill:#b3b3b3;fill-opacity:1;stroke:none;stroke-width:0.600001;stroke-linecap:square;stroke-linejoin:round;stroke-dasharray:none;stroke-dashoffset:0;stroke-opacity:1;paint-order:markers fill stroke"
         id="rect16"
         width="106"
         height="10"
         x="-18.880318"
         y="163.04932" /><rect
         style="fill:#ffffff;fill-opacity:1;stroke:#000000;stroke-width:0.600001;stroke-linecap:square;stroke-linejoin:round;stroke-dasharray:none;stroke-dashoffset:0;stroke-opacity:1;paint-order:markers fill stroke"
         id="rect17"
         width="106"
         height="10"
         x="-19.879818"
         y="162.04909" /><g
         id="text12"
         style="font-size:6.35px;font-family:Cambria;-inkscape-font-specification:Cambria;fill:#ff0000;stroke:#000000;stroke-width:0.600001;stroke-linecap:square;stroke-linejoin:round;paint-order:markers fill stroke"
         aria-label="Si t[j] &lt; t[i] Alors Echanger(t[i], t[j])"><path
           style="font-family:'Noto Sans Armenian';-inkscape-font-specification:'Noto Sans Armenian';fill:#aa0000;stroke:none;stroke-width:0.6"
           d="m -13.936497,167.48724 q 0,0.60325 -0.43815,0.9398 -0.43815,0.33655 -1.1811,0.33655 -0.381,0 -0.70485,-0.0572 -0.32385,-0.0571 -0.53975,-0.15875 v -0.5461 q 0.2286,0.1016 0.56515,0.18415 0.3429,0.0825 0.70485,0.0825 0.508,0 0.762,-0.19685 0.26035,-0.19685 0.26035,-0.5334 0,-0.22225 -0.09525,-0.37465 -0.09525,-0.1524 -0.3302,-0.2794 -0.2286,-0.13335 -0.64135,-0.2794 -0.57785,-0.20955 -0.8763,-0.51435 -0.2921,-0.3048 -0.2921,-0.83185 0,-0.36195 0.18415,-0.61595 0.18415,-0.26035 0.508,-0.40005 0.3302,-0.1397 0.75565,-0.1397 0.37465,0 0.6858,0.0699 0.31115,0.0699 0.56515,0.18415 l -0.1778,0.48895 q -0.23495,-0.1016 -0.51435,-0.17145 -0.27305,-0.0699 -0.5715,-0.0699 -0.42545,0 -0.64135,0.18415 -0.2159,0.1778 -0.2159,0.47625 0,0.2286 0.09525,0.381 0.09525,0.1524 0.31115,0.27305 0.2159,0.12065 0.5842,0.26035 0.40005,0.14605 0.6731,0.3175 0.2794,0.1651 0.4191,0.40005 0.14605,0.23495 0.14605,0.59055 z m 1.123949,-3.4671 q 0.127,0 0.22225,0.0889 0.1016,0.0825 0.1016,0.2667 0,0.1778 -0.1016,0.2667 -0.09525,0.0889 -0.22225,0.0889 -0.1397,0 -0.23495,-0.0889 -0.09525,-0.0889 -0.09525,-0.2667 0,-0.18415 0.09525,-0.2667 0.09525,-0.0889 0.23495,-0.0889 z m 0.27305,1.27635 v 3.4036 h -0.5588 v -3.4036 z"
           id="path18" /><path
           style="font-family:'Noto Sans Armenian';-inkscape-font-specification:'Noto Sans Armenian';fill:#ff00ff;stroke:none;stroke-width:0.6"
           d="m -8.6723506,168.30639 q 0.127,0 0.26035,-0.019 0.13335,-0.0254 0.2159,-0.0508 v 0.42545 q -0.0889,0.0444 -0.254,0.0699 -0.1651,0.0317 -0.3175,0.0317 -0.2667,0 -0.4953,-0.0889 -0.22225,-0.0952 -0.36195,-0.32385 -0.1397,-0.2286 -0.1397,-0.64135 v -1.9812 h -0.4826004 v -0.2667 l 0.4889504,-0.22225 0.22225,-0.7239 h 0.3302 v 0.78105 h 0.98425 v 0.4318 h -0.98425 v 1.9685 q 0,0.31115 0.14605,0.46355 0.1524,0.14605 0.38735,0.14605 z m 2.5463503,1.397 h -1.4224 v -5.5372 h 1.4224 v 0.4572 h -0.8763 v 4.6228 h 0.8763 z m 0.9080587,-5.32765 q 0,-0.18415 0.09525,-0.2667 0.09525,-0.0889 0.23495,-0.0889 0.127,0 0.22225,0.0889 0.1016,0.0825 0.1016,0.2667 0,0.1778 -0.1016,0.2667 -0.09525,0.0889 -0.22225,0.0889 -0.1397,0 -0.23495,-0.0889 -0.09525,-0.0889 -0.09525,-0.2667 z m -0.3556,5.84835 q -0.15875,0 -0.2794,-0.0254 -0.12065,-0.019 -0.20955,-0.0508 v -0.45085 q 0.09525,0.0254 0.19685,0.0445 0.1016,0.019 0.22225,0.019 0.2032,0 0.33655,-0.1143 0.13335,-0.10795 0.13335,-0.4191 v -3.93065 h 0.5588 v 3.9116 q 0,0.47625 -0.2286,0.74295 -0.2286,0.27305 -0.73025,0.27305 z m 1.6573461,-0.9779 h 0.8763 v -4.6228 h -0.8763 v -0.4572 h 1.4224 v 5.5372 h -1.4224 z m 6.8897543,-1.2827 -2.99084999,-1.31445 v -0.3175 l 2.99084999,-1.49225 v 0.4953 l -2.39395,1.1303 2.39395,1.0033 z m 3.651255,0.3429 q 0.127,0 0.26035,-0.019 0.13335,-0.0254 0.2159,-0.0508 v 0.42545 q -0.0889,0.0444 -0.254,0.0699 -0.1651,0.0317 -0.3175,0.0317 -0.2667,0 -0.4953,-0.0889 -0.22225,-0.0952 -0.36195,-0.32385 -0.1397,-0.2286 -0.1397,-0.64135 v -1.9812 h -0.4826 v -0.2667 l 0.48895,-0.22225 0.22225,-0.7239 h 0.3302 v 0.78105 h 0.98425 v 0.4318 h -0.98425 v 1.9685 q 0,0.31115 0.14605,0.46355 0.1524,0.14605 0.38735,0.14605 z m 2.5463508,1.397 h -1.4224 v -5.5372 h 1.4224 v 0.4572 h -0.8763 v 4.6228 h 0.8763 z m 0.9842514,-5.68325 q 0.127,0 0.22225,0.0889 0.1016,0.0825 0.1016,0.2667 0,0.1778 -0.1016,0.2667 -0.09525,0.0889 -0.22225,0.0889 -0.1397,0 -0.23495,-0.0889 -0.09525,-0.0889 -0.09525,-0.2667 0,-0.18415 0.09525,-0.2667 0.09525,-0.0889 0.23495,-0.0889 z m 0.27305,1.27635 v 3.4036 h -0.5588 v -3.4036 z m 0.698498,3.9497 h 0.8763 v -4.6228 h -0.8763 v -0.4572 h 1.4224 v 5.5372 h -1.4224 z"
           id="path19" /><path
           style="font-family:'Noto Sans Armenian';-inkscape-font-specification:'Noto Sans Armenian';fill:#aa0000;stroke:none;stroke-width:0.6"
           d="m 18.169118,168.70009 -0.5461,-1.40335 h -1.79705 l -0.53975,1.40335 h -0.57785 l 1.77165,-4.55295 h 0.51435 l 1.7653,4.55295 z m -1.22555,-3.28295 c -0.0127,-0.0339 -0.03387,-0.0952 -0.0635,-0.18415 -0.02963,-0.0889 -0.05927,-0.17992 -0.0889,-0.27305 -0.0254,-0.0974 -0.04657,-0.17145 -0.0635,-0.22225 -0.02963,0.13123 -0.0635,0.26035 -0.1016,0.38735 -0.0381,0.12277 -0.06985,0.22013 -0.09525,0.2921 l -0.51435,1.3716 h 1.4351 z m 2.920998,3.28295 h -0.5588 v -4.826 h 0.5588 z m 4.038598,-1.70815 c 0,0.56303 -0.143933,0.99907 -0.4318,1.3081 -0.283633,0.30903 -0.668867,0.46355 -1.1557,0.46355 -0.300567,0 -0.569383,-0.0677 -0.80645,-0.2032 -0.232833,-0.1397 -0.416983,-0.34078 -0.55245,-0.60325 -0.135467,-0.2667 -0.2032,-0.58843 -0.2032,-0.9652 0,-0.56303 0.141817,-0.99695 0.42545,-1.30175 0.283633,-0.3048 0.668867,-0.4572 1.1557,-0.4572 0.309033,0 0.579967,0.0699 0.8128,0.20955 0.237067,0.13547 0.421217,0.33443 0.55245,0.5969 0.135467,0.25823 0.2032,0.57573 0.2032,0.9525 z m -2.57175,0 c 0,0.40217 0.07832,0.72178 0.23495,0.95885 0.160867,0.23283 0.414867,0.34925 0.762,0.34925 0.3429,0 0.594783,-0.11642 0.75565,-0.34925 0.160867,-0.23707 0.2413,-0.55668 0.2413,-0.95885 0,-0.40217 -0.08043,-0.71755 -0.2413,-0.94615 -0.160867,-0.2286 -0.414867,-0.3429 -0.762,-0.3429 -0.347133,0 -0.599017,0.1143 -0.75565,0.3429 -0.156633,0.2286 -0.23495,0.54398 -0.23495,0.94615 z m 5.041897,-1.75895 c 0.0635,0 0.131233,0.004 0.2032,0.0127 0.0762,0.004 0.141817,0.0125 0.19685,0.0254 l -0.06985,0.51435 c -0.05503,-0.0127 -0.116417,-0.0232 -0.18415,-0.0317 -0.0635,-0.008 -0.124883,-0.0127 -0.18415,-0.0127 -0.173567,0 -0.33655,0.0487 -0.48895,0.14605 -0.1524,0.0931 -0.275167,0.22648 -0.3683,0.40005 -0.0889,0.16933 -0.13335,0.3683 -0.13335,0.5969 v 1.8161 h -0.5588 v -3.4036 h 0.4572 l 0.0635,0.6223 h 0.0254 c 0.110067,-0.18627 0.251883,-0.34713 0.42545,-0.4826 0.173567,-0.13547 0.378883,-0.2032 0.61595,-0.2032 z m 3.251201,2.5273 c 0,0.3302 -0.122767,0.57997 -0.3683,0.7493 -0.245533,0.16933 -0.575733,0.254 -0.9906,0.254 -0.237067,0 -0.442383,-0.0191 -0.61595,-0.0572 -0.169333,-0.0381 -0.319617,-0.091 -0.45085,-0.15875 v -0.508 c 0.135467,0.0677 0.29845,0.13123 0.48895,0.1905 0.194733,0.055 0.391583,0.0825 0.59055,0.0825 0.283633,0 0.48895,-0.0444 0.61595,-0.13335 0.127,-0.0931 0.1905,-0.2159 0.1905,-0.3683 0,-0.0847 -0.02328,-0.16087 -0.06985,-0.2286 -0.04657,-0.0677 -0.131233,-0.13547 -0.254,-0.2032 -0.118533,-0.0677 -0.289983,-0.14393 -0.51435,-0.2286 -0.220133,-0.0847 -0.408517,-0.16933 -0.56515,-0.254 -0.156633,-0.0847 -0.277283,-0.18627 -0.36195,-0.3048 -0.08467,-0.11853 -0.127,-0.27093 -0.127,-0.4572 0,-0.28787 0.116417,-0.51012 0.34925,-0.66675 0.237067,-0.15663 0.5461,-0.23495 0.9271,-0.23495 0.207433,0 0.40005,0.0212 0.57785,0.0635 0.182033,0.0381 0.351367,0.0932 0.508,0.1651 l -0.1905,0.4445 c -0.143933,-0.0593 -0.294217,-0.11007 -0.45085,-0.1524 -0.156633,-0.0423 -0.3175,-0.0635 -0.4826,-0.0635 -0.2286,0 -0.404283,0.0381 -0.52705,0.1143 -0.118533,0.072 -0.1778,0.17145 -0.1778,0.29845 0,0.0931 0.02752,0.17357 0.08255,0.2413 0.05503,0.0635 0.14605,0.12697 0.27305,0.1905 0.131233,0.0593 0.3048,0.13123 0.5207,0.2159 0.2159,0.0804 0.40005,0.16298 0.55245,0.24765 0.1524,0.0847 0.268817,0.18838 0.34925,0.31115 0.08043,0.11853 0.12065,0.26882 0.12065,0.45085 z"
           id="path20"
           sodipodi:nodetypes="ccccccccccsccccccccccccscsccsssccsscscssssscccccsccsccccccsccsssccccscssccssscscccsscscccscss" /><path
           style="font-family:'Noto Sans Armenian';-inkscape-font-specification:'Noto Sans Armenian';fill:#ff00ff;stroke:none;stroke-width:0.6"
           d="m 34.710862,168.70009 h -2.53365 v -4.5339 h 2.53365 v 0.50165 h -1.96215 v 1.41605 h 1.84785 v 0.4953 h -1.84785 v 1.61925 h 1.96215 z m 2.285998,0.0635 q -0.45085,0 -0.80645,-0.18415 -0.34925,-0.18415 -0.55245,-0.5715 -0.19685,-0.38735 -0.19685,-0.9906 0,-0.62865 0.20955,-1.02235 0.20955,-0.3937 0.56515,-0.57785 0.36195,-0.18415 0.81915,-0.18415 0.26035,0 0.50165,0.0572 0.2413,0.0508 0.3937,0.127 l -0.17145,0.46355 q -0.1524,-0.0571 -0.3556,-0.10795 -0.2032,-0.0508 -0.381,-0.0508 -1.0033,0 -1.0033,1.28905 0,0.61595 0.2413,0.94615 0.24765,0.32385 0.73025,0.32385 0.2794,0 0.48895,-0.0572 0.2159,-0.0572 0.3937,-0.1397 v 0.4953 q -0.17145,0.0889 -0.381,0.13335 -0.2032,0.0508 -0.4953,0.0508 z m 2.24155,-3.47345 q 0,0.254 -0.03175,0.47625 h 0.0381 q 0.1651,-0.26035 0.4445,-0.3937 0.28575,-0.13335 0.61595,-0.13335 0.6223,0 0.93345,0.29845 0.31115,0.2921 0.31115,0.94615 v 2.21615 h -0.55245 v -2.17805 q 0,-0.81915 -0.762,-0.81915 -0.5715,0 -0.7874,0.32385 -0.20955,0.3175 -0.20955,0.9144 v 1.75895 h -0.5588 v -4.826 h 0.5588 z m 4.654547,-0.0508 q 0.6223,0 0.92075,0.27305 0.29845,0.27305 0.29845,0.86995 v 2.31775 h -0.4064 l -0.10795,-0.4826 h -0.0254 q -0.22225,0.2794 -0.4699,0.41275 -0.2413,0.13335 -0.6731,0.13335 -0.46355,0 -0.76835,-0.2413 -0.3048,-0.24765 -0.3048,-0.76835 0,-0.508 0.40005,-0.78105 0.40005,-0.2794 1.2319,-0.3048 l 0.57785,-0.019 v -0.2032 q 0,-0.42545 -0.18415,-0.59055 -0.18415,-0.1651 -0.5207,-0.1651 -0.2667,0 -0.508,0.0825 -0.2413,0.0762 -0.45085,0.1778 l -0.17145,-0.4191 q 0.22225,-0.12065 0.52705,-0.2032 0.3048,-0.0889 0.635,-0.0889 z m 0.1651,1.8161 q -0.635,0.0254 -0.88265,0.2032 -0.2413,0.1778 -0.2413,0.50165 0,0.28575 0.17145,0.4191 0.1778,0.13335 0.45085,0.13335 0.4318,0 0.71755,-0.23495 0.28575,-0.2413 0.28575,-0.7366 v -0.3048 z m 3.746505,-1.82245 q 0.6096,0 0.92075,0.29845 0.31115,0.2921 0.31115,0.9525 v 2.21615 h -0.55245 v -2.17805 q 0,-0.81915 -0.762,-0.81915 -0.565149,0 -0.781049,0.3175 -0.2159,0.3175 -0.2159,0.9144 v 1.7653 h -0.5588 v -3.4036 h 0.45085 l 0.08255,0.46355 h 0.03175 q 0.1651,-0.2667 0.4572,-0.3937 0.292099,-0.13335 0.615949,-0.13335 z m 3.492502,0 q 0.33655,0 0.60325,0.127 0.27305,0.127 0.46355,0.38735 h 0.03175 l 0.0762,-0.45085 h 0.4445 v 3.46075 q 0,0.73025 -0.37465,1.09855 -0.3683,0.3683 -1.14935,0.3683 -0.7493,0 -1.22555,-0.2159 v -0.51435 q 0.50165,0.2667 1.2573,0.2667 0.43815,0 0.6858,-0.26035 0.254,-0.254 0.254,-0.6985 v -0.13335 q 0,-0.0762 0.0063,-0.2159 0.0064,-0.14605 0.0127,-0.2032 h -0.0254 q -0.3429,0.51435 -1.0541,0.51435 -0.6604,0 -1.03505,-0.46355 -0.3683,-0.46355 -0.3683,-1.2954 0,-0.8128 0.3683,-1.28905 0.37465,-0.4826 1.0287,-0.4826 z m 0.0762,0.4699 q -0.42545,0 -0.6604,0.3429 -0.23495,0.33655 -0.23495,0.9652 0,0.62865 0.2286,0.9652 0.23495,0.3302 0.67945,0.3302 0.51435,0 0.7493,-0.27305 0.23495,-0.2794 0.23495,-0.89535 v -0.13335 q 0,-0.6985 -0.2413,-0.99695 -0.2413,-0.3048 -0.75565,-0.3048 z m 3.937,-0.4699 q 0.43815,0 0.7493,0.1905 0.3175,0.1905 0.4826,0.53975 0.17145,0.3429 0.17145,0.80645 v 0.33655 h -2.33045 q 0.0127,0.57785 0.2921,0.88265 0.28575,0.29845 0.79375,0.29845 0.32385,0 0.5715,-0.0572 0.254,-0.0635 0.5207,-0.1778 v 0.48895 q -0.26035,0.1143 -0.51435,0.1651 -0.254,0.0572 -0.60325,0.0572 -0.4826,0 -0.85725,-0.19685 -0.3683,-0.19685 -0.57785,-0.5842 -0.2032,-0.3937 -0.2032,-0.95885 0,-0.5588 0.18415,-0.95885 0.1905,-0.40005 0.52705,-0.61595 0.3429,-0.2159 0.79375,-0.2159 z m -0.0063,0.4572 q -0.40005,0 -0.635,0.26035 -0.2286,0.254 -0.27305,0.7112 h 1.73355 q -0.0063,-0.4318 -0.2032,-0.6985 -0.19685,-0.27305 -0.6223,-0.27305 z m 3.860791,-0.4572 q 0.09525,0 0.2032,0.0127 0.1143,0.006 0.19685,0.0254 l -0.06985,0.51435 q -0.08255,-0.019 -0.18415,-0.0317 -0.09525,-0.0127 -0.18415,-0.0127 -0.26035,0 -0.48895,0.14605 -0.2286,0.1397 -0.3683,0.40005 -0.13335,0.254 -0.13335,0.5969 v 1.8161 h -0.5588 v -3.4036 h 0.4572 l 0.0635,0.6223 h 0.0254 q 0.1651,-0.2794 0.42545,-0.4826 0.26035,-0.2032 0.61595,-0.2032 z m 0.749301,1.7272 q 0,-0.7747 0.22225,-1.49225 0.2286,-0.7239 0.7112,-1.30175 h 0.52705 q -0.4445,0.5969 -0.6731,1.31445 -0.22225,0.71755 -0.22225,1.4732 0,0.7366 0.22225,1.4478 0.2286,0.70485 0.66675,1.30175 h -0.5207 q -0.4826,-0.5588 -0.7112,-1.26365 -0.22225,-0.7112 -0.22225,-1.47955 z m 3.327398,1.3462 q 0.127,0 0.26035,-0.019 0.13335,-0.0254 0.2159,-0.0508 v 0.42545 q -0.0889,0.0444 -0.254,0.0699 -0.1651,0.0317 -0.3175,0.0317 -0.2667,0 -0.4953,-0.0889 -0.22225,-0.0952 -0.36195,-0.32385 -0.1397,-0.2286 -0.1397,-0.64135 v -1.9812 h -0.4826 v -0.2667 l 0.48895,-0.22225 0.22225,-0.7239 h 0.3302 v 0.78105 h 0.98425 v 0.4318 h -0.98425 v 1.9685 q 0,0.31115 0.14605,0.46355 0.1524,0.14605 0.38735,0.14605 z m 2.546351,1.397 h -1.4224 v -5.5372 h 1.4224 v 0.4572 h -0.8763 v 4.6228 h 0.8763 z m 0.98425,-5.68325 q 0.127,0 0.22225,0.0889 0.1016,0.0825 0.1016,0.2667 0,0.1778 -0.1016,0.2667 -0.09525,0.0889 -0.22225,0.0889 -0.1397,0 -0.23495,-0.0889 -0.09525,-0.0889 -0.09525,-0.2667 0,-0.18415 0.09525,-0.2667 0.09525,-0.0889 0.23495,-0.0889 z m 0.27305,1.27635 v 3.4036 h -0.5588 v -3.4036 z m 0.698498,3.9497 h 0.8763 v -4.6228 h -0.8763 v -0.4572 h 1.4224 v 5.5372 h -1.4224 z m 3.149607,-1.21285 q -0.08255,0.33655 -0.2413,0.7366 -0.1524,0.4064 -0.3048,0.7493 h -0.41275 q 0.0889,-0.36195 0.1778,-0.79375 0.09525,-0.4318 0.1397,-0.762 h 0.5969 z m 3.809998,0.27305 q 0.127,0 0.26035,-0.019 0.13335,-0.0254 0.2159,-0.0508 v 0.42545 q -0.0889,0.0444 -0.254,0.0699 -0.1651,0.0317 -0.3175,0.0317 -0.2667,0 -0.4953,-0.0889 -0.22225,-0.0952 -0.36195,-0.32385 -0.1397,-0.2286 -0.1397,-0.64135 v -1.9812 h -0.4826 v -0.2667 l 0.48895,-0.22225 0.22225,-0.7239 h 0.3302 v 0.78105 h 0.98425 v 0.4318 h -0.98425 v 1.9685 q 0,0.31115 0.14605,0.46355 0.1524,0.14605 0.38735,0.14605 z m 2.546351,1.397 h -1.4224 v -5.5372 h 1.4224 v 0.4572 h -0.8763 v 4.6228 h 0.8763 z m 0.908055,-5.32765 q 0,-0.18415 0.09525,-0.2667 0.09525,-0.0889 0.23495,-0.0889 0.127,0 0.22225,0.0889 0.1016,0.0825 0.1016,0.2667 0,0.1778 -0.1016,0.2667 -0.09525,0.0889 -0.22225,0.0889 -0.1397,0 -0.23495,-0.0889 -0.09525,-0.0889 -0.09525,-0.2667 z m -0.3556,5.84835 q -0.15875,0 -0.2794,-0.0254 -0.12065,-0.019 -0.20955,-0.0508 v -0.45085 q 0.09525,0.0254 0.19685,0.0445 0.1016,0.019 0.22225,0.019 0.2032,0 0.33655,-0.1143 0.13335,-0.10795 0.13335,-0.4191 v -3.93065 h 0.5588 v 3.9116 q 0,0.47625 -0.2286,0.74295 -0.2286,0.27305 -0.73025,0.27305 z m 1.657348,-0.9779 h 0.8763 v -4.6228 h -0.8763 v -0.4572 h 1.4224 v 5.5372 h -1.4224 z m 3.581399,-2.286 q 0,0.76835 -0.2286,1.47955 -0.22225,0.70485 -0.70485,1.26365 h -0.5207 q 0.43815,-0.5969 0.6604,-1.30175 0.2286,-0.7112 0.2286,-1.4478 0,-0.75565 -0.2286,-1.4732 -0.22225,-0.71755 -0.66675,-1.31445 h 0.52705 q 0.4826,0.57785 0.70485,1.30175 0.2286,0.71755 0.2286,1.49225 z"
           id="path21" /></g></g></g></svg>
