<?xml version="1.0" encoding="UTF-8" standalone="no"?>
<!-- Created with Inkscape (http://www.inkscape.org/) -->

<svg
   width="145mm"
   height="60mm"
   viewBox="0 0 145 60"
   version="1.1"
   id="svg1"
   xml:space="preserve"
   inkscape:version="1.4 (86a8ad7, 2024-10-11)"
   sodipodi:docname="tri_bulles.svg"
   xmlns:inkscape="http://www.inkscape.org/namespaces/inkscape"
   xmlns:sodipodi="http://sodipodi.sourceforge.net/DTD/sodipodi-0.dtd"
   xmlns="http://www.w3.org/2000/svg"
   xmlns:svg="http://www.w3.org/2000/svg"><sodipodi:namedview
     id="namedview1"
     pagecolor="#ffffff"
     bordercolor="#000000"
     borderopacity="0.25"
     inkscape:showpageshadow="2"
     inkscape:pageopacity="0.0"
     inkscape:pagecheckerboard="0"
     inkscape:deskcolor="#d1d1d1"
     inkscape:document-units="mm"
     inkscape:zoom="1.4520903"
     inkscape:cx="175.26458"
     inkscape:cy="236.55553"
     inkscape:window-width="1920"
     inkscape:window-height="1017"
     inkscape:window-x="-8"
     inkscape:window-y="-8"
     inkscape:window-maximized="1"
     inkscape:current-layer="layer1" /><defs
     id="defs1"><marker
       style="overflow:visible"
       id="ConcaveTriangle"
       refX="0"
       refY="0"
       orient="auto-start-reverse"
       inkscape:stockid="Concave triangle arrow"
       markerWidth="0.5"
       markerHeight="0.5"
       viewBox="0 0 1 1"
       inkscape:isstock="true"
       inkscape:collect="always"
       preserveAspectRatio="xMidYMid"><path
         transform="scale(0.7)"
         d="M -2,-4 9,0 -2,4 c 2,-2.33 2,-5.66 0,-8 z"
         style="fill:context-stroke;fill-rule:evenodd;stroke:none"
         id="path8" /></marker><marker
       style="overflow:visible"
       id="ConcaveTriangle-5"
       refX="0"
       refY="0"
       orient="auto-start-reverse"
       inkscape:stockid="Concave triangle arrow"
       markerWidth="0.5"
       markerHeight="0.5"
       viewBox="0 0 1 1"
       inkscape:isstock="true"
       inkscape:collect="always"
       preserveAspectRatio="xMidYMid"><path
         transform="scale(0.7)"
         d="M -2,-4 9,0 -2,4 c 2,-2.33 2,-5.66 0,-8 z"
         style="fill:context-stroke;fill-rule:evenodd;stroke:none"
         id="path8-2" /></marker></defs><g
     inkscape:label="Calque 1"
     inkscape:groupmode="layer"
     id="layer1"><g
       id="g4"
       inkscape:label="partie triée"
       transform="translate(46.259436,-113.93767)"><rect
         style="fill:#c0c0ff;fill-opacity:1;stroke:#000000;stroke-width:0.900003;stroke-linecap:square;stroke-linejoin:round;stroke-dasharray:none;stroke-opacity:1;paint-order:markers fill stroke"
         id="rect1"
         width="58.306751"
         height="13.665644"
         x="38.684563"
         y="129.66867" /><path
         style="font-size:6.35px;font-family:Cambria;-inkscape-font-specification:Cambria;stroke-width:0.9;stroke-linecap:square;stroke-linejoin:round;paint-order:markers fill stroke"
         d="m 53.920959,154.82033 q 0,0.18294 0.0186,0.29146 0.0217,0.10852 0.06201,0.17363 0.04341,0.062 0.114721,0.0992 0.07131,0.0341 0.223243,0.0682 v 0.15193 h -1.361158 v -0.15193 q 0.192237,-0.0496 0.257349,-0.10852 0.06511,-0.062 0.08372,-0.17363 0.0217,-0.11162 0.0217,-0.34107 v -2.682 q 0,-0.21394 -0.0155,-0.31006 -0.0155,-0.0992 -0.05271,-0.15193 -0.03411,-0.0558 -0.09302,-0.0868 -0.05891,-0.0341 -0.201538,-0.0744 v -0.15193 h 1.537891 q 0.725537,0 1.079004,0.27905 0.356567,0.27595 0.356567,0.84336 0,0.32246 -0.111621,0.57981 -0.111621,0.25735 -0.31626,0.42168 -0.204638,0.16433 -0.483691,0.23565 -0.279053,0.0713 -0.586011,0.0713 -0.344165,0 -0.533301,-0.0124 z m 0,-1.28674 h 0.359668 q 0.350367,0 0.576709,-0.0899 0.229444,-0.093 0.350367,-0.30386 0.120922,-0.21394 0.120922,-0.5643 0,-0.26665 -0.07131,-0.44339 -0.07131,-0.17983 -0.198438,-0.28835 -0.124023,-0.10852 -0.297656,-0.15193 -0.173633,-0.0465 -0.378271,-0.0465 -0.306958,0 -0.461988,0.0124 z m 4.257105,1.62781 -0.04651,-0.0124 q -0.269751,0.27596 -0.508496,0.39068 -0.235645,0.11472 -0.502295,0.11472 -0.235644,0 -0.415478,-0.0899 -0.179834,-0.093 -0.275953,-0.25735 -0.09612,-0.16743 -0.09612,-0.38447 0,-0.45268 0.446485,-0.69763 0.449585,-0.24805 1.345654,-0.28836 v -0.20153 q 0,-0.32246 -0.06201,-0.5085 -0.06201,-0.18603 -0.195337,-0.27285 -0.133325,-0.0868 -0.356567,-0.0868 -0.241846,0 -0.390674,0.12713 -0.145727,0.12712 -0.220142,0.38137 h -0.406176 v -0.40308 q 0.297656,-0.15503 0.496093,-0.22634 0.198438,-0.0744 0.396875,-0.11472 0.198438,-0.0434 0.403077,-0.0434 0.306958,0 0.492993,0.0992 0.186035,0.0961 0.279052,0.29765 0.09302,0.20154 0.09302,0.60772 v 1.079 q 0,0.22945 0.0031,0.32557 0.0031,0.093 0.0186,0.17363 0.0155,0.0806 0.04651,0.13022 0.03101,0.0465 0.08992,0.0806 0.06201,0.0341 0.198437,0.0713 v 0.15193 h -0.84956 z m -0.05271,-0.97049 q -0.629419,0.006 -0.942578,0.16743 -0.313159,0.16123 -0.313159,0.4868 0,0.17673 0.07131,0.27905 0.07131,0.10232 0.179834,0.14263 0.108521,0.0372 0.257349,0.0372 0.21084,0 0.381372,-0.10232 0.173633,-0.10232 0.269751,-0.26045 0.09612,-0.15813 0.09612,-0.31315 z m 2.198315,-1.03559 0.04341,0.009 q 0.170532,-0.20774 0.316259,-0.32556 0.145728,-0.12093 0.313159,-0.18604 0.170533,-0.0651 0.384473,-0.0651 0.179834,0 0.325562,0.0186 v 0.71314 h -0.350367 q -0.07441,-0.16743 -0.158129,-0.24185 -0.08372,-0.0775 -0.229444,-0.0775 -0.111621,0 -0.223242,0.0651 -0.108521,0.0651 -0.21084,0.18914 -0.102319,0.12402 -0.142627,0.23254 -0.03721,0.10852 -0.03721,0.25735 v 1.0852 q 0,0.28216 0.03411,0.39068 0.03411,0.10542 0.111621,0.15503 0.08062,0.0496 0.238745,0.0775 v 0.15193 h -1.249536 v -0.15193 q 0.117822,-0.0372 0.167431,-0.0651 0.05271,-0.0279 0.08992,-0.0775 0.03721,-0.0496 0.05581,-0.15192 0.0186,-0.10232 0.0186,-0.31936 v -1.35186 q 0,-0.19844 -0.0062,-0.31936 -0.0062,-0.12092 -0.04341,-0.19224 -0.03721,-0.0744 -0.114722,-0.10852 -0.07441,-0.0372 -0.21394,-0.062 v -0.16123 l 0.725537,-0.031 h 0.189136 z m 1.603003,-0.35967 q 0.15503,-0.0248 0.251148,-0.0868 0.09612,-0.062 0.148828,-0.15813 0.05581,-0.0992 0.08682,-0.24494 0.03101,-0.14883 0.06511,-0.43098 h 0.440283 v 0.76584 h 1.001489 v 0.31316 h -1.00149 v 1.37976 q 0,0.30076 0.02481,0.48059 0.0248,0.17673 0.09302,0.27905 0.06821,0.0992 0.155029,0.14263 0.08682,0.0434 0.223243,0.0434 0.124023,0 0.232544,-0.0496 0.10852,-0.0527 0.21394,-0.14883 l 0.139526,0.16743 q -0.220141,0.21394 -0.418579,0.31006 -0.195337,0.0961 -0.406177,0.0961 -0.399975,0 -0.595312,-0.23565 -0.195337,-0.23874 -0.195337,-0.74414 v -1.72082 H 61.92668 Z m 3.221509,-1.37046 v 0.60151 h -0.570508 v -0.60151 z m -0.886768,4.02766 q 0.120923,-0.0372 0.170532,-0.0651 0.05271,-0.0279 0.08682,-0.0775 0.03721,-0.0496 0.05581,-0.15192 0.0217,-0.10232 0.0217,-0.31936 v -1.35186 q 0,-0.19844 -0.0062,-0.31936 -0.0062,-0.12092 -0.04341,-0.19224 -0.03721,-0.0744 -0.114722,-0.10852 -0.07441,-0.0372 -0.21394,-0.062 v -0.16433 l 0.722436,-0.0279 h 0.189136 v 2.21692 q 0,0.26665 0.02481,0.37207 0.0248,0.10232 0.09302,0.15813 0.07131,0.0527 0.229444,0.093 v 0.15193 h -1.21543 z m 4.241602,-0.37517 q -0.198438,0.20774 -0.365869,0.32556 -0.164331,0.11782 -0.362769,0.18604 -0.198437,0.0651 -0.437183,0.0651 -0.63872,0 -0.964282,-0.38137 -0.325561,-0.38448 -0.325561,-1.13172 0,-0.46198 0.164331,-0.81545 0.167431,-0.35347 0.474389,-0.5457 0.306958,-0.19224 0.706934,-0.19224 0.313159,0 0.533301,0.0992 0.220141,0.0992 0.350366,0.27285 0.133325,0.17053 0.204639,0.43408 0.07441,0.26045 0.08371,0.68213 h -1.953369 v 0.0558 q 0,0.36587 0.08062,0.61702 0.08371,0.24805 0.269751,0.39067 0.189135,0.13953 0.489892,0.13953 0.254248,0 0.455786,-0.093 0.204639,-0.0961 0.406177,-0.31006 z m -0.520899,-1.25884 q -0.0186,-0.33486 -0.08372,-0.5457 -0.06511,-0.21394 -0.195336,-0.32556 -0.130225,-0.11472 -0.341065,-0.11472 -0.31936,0 -0.511597,0.25734 -0.189135,0.25425 -0.223242,0.72864 z m 2.353345,-1.02319 q 0.155029,-0.0248 0.251147,-0.0868 0.09612,-0.062 0.148829,-0.15813 0.05581,-0.0992 0.08682,-0.24494 0.03101,-0.14883 0.06511,-0.43098 h 0.440284 v 0.76584 h 1.001489 v 0.31316 h -1.001489 v 1.37976 q 0,0.30076 0.0248,0.48059 0.02481,0.17673 0.09302,0.27905 0.06821,0.0992 0.155029,0.14263 0.08682,0.0434 0.223242,0.0434 0.124024,0 0.232544,-0.0496 0.108521,-0.0527 0.213941,-0.14883 l 0.139526,0.16743 q -0.220142,0.21394 -0.418579,0.31006 -0.195337,0.0961 -0.406177,0.0961 -0.399975,0 -0.595312,-0.23565 -0.195337,-0.23874 -0.195337,-0.74414 v -1.72082 h -0.458887 z m 3.1719,0.35967 0.04341,0.009 q 0.170532,-0.20774 0.31626,-0.32556 0.145727,-0.12093 0.313159,-0.18604 0.170532,-0.0651 0.384473,-0.0651 0.179834,0 0.325561,0.0186 v 0.71314 h -0.350366 q -0.07441,-0.16743 -0.15813,-0.24185 -0.08372,-0.0775 -0.229443,-0.0775 -0.111621,0 -0.223242,0.0651 -0.108521,0.0651 -0.21084,0.18914 -0.10232,0.12402 -0.142627,0.23254 -0.03721,0.10852 -0.03721,0.25735 v 1.0852 q 0,0.28216 0.03411,0.39068 0.03411,0.10542 0.111621,0.15503 0.08061,0.0496 0.238745,0.0775 v 0.15193 h -1.249536 v -0.15193 q 0.117822,-0.0372 0.167432,-0.0651 0.05271,-0.0279 0.08992,-0.0775 0.03721,-0.0496 0.05581,-0.15192 0.0186,-0.10232 0.0186,-0.31936 v -1.35186 q 0,-0.19844 -0.0062,-0.31936 -0.0062,-0.12092 -0.04341,-0.19224 -0.03721,-0.0744 -0.114722,-0.10852 -0.07441,-0.0372 -0.213941,-0.062 v -0.16123 l 0.725538,-0.031 h 0.189135 z m 2.675805,-1.73013 v 0.60151 h -0.570508 v -0.60151 z m -0.886767,4.02766 q 0.120922,-0.0372 0.170532,-0.0651 0.05271,-0.0279 0.08682,-0.0775 0.03721,-0.0496 0.05581,-0.15192 0.0217,-0.10232 0.0217,-0.31936 v -1.35186 q 0,-0.19844 -0.0062,-0.31936 -0.0062,-0.12092 -0.04341,-0.19224 -0.03721,-0.0744 -0.114721,-0.10852 -0.07441,-0.0372 -0.213941,-0.062 v -0.16433 l 0.722437,-0.0279 h 0.189136 v 2.21692 q 0,0.26665 0.0248,0.37207 0.02481,0.10232 0.09302,0.15813 0.07131,0.0527 0.229443,0.093 v 0.15193 h -1.215429 z m 4.2416,-0.37517 q -0.198437,0.20774 -0.365869,0.32556 -0.164331,0.11782 -0.362768,0.18604 -0.198438,0.0651 -0.437183,0.0651 -0.638721,0 -0.964282,-0.38137 -0.325562,-0.38448 -0.325562,-1.13172 0,-0.46198 0.164331,-0.81545 0.167432,-0.35347 0.47439,-0.5457 0.306958,-0.19224 0.706934,-0.19224 0.313159,0 0.5333,0.0992 0.220142,0.0992 0.350367,0.27285 0.133325,0.17053 0.204638,0.43408 0.07441,0.26045 0.08372,0.68213 h -1.953369 v 0.0558 q 0,0.36587 0.08061,0.61702 0.08372,0.24805 0.269751,0.39067 0.189136,0.13953 0.489893,0.13953 0.254248,0 0.455786,-0.093 0.204638,-0.0961 0.406177,-0.31006 z m -0.520898,-1.25884 q -0.0186,-0.33486 -0.08372,-0.5457 -0.06511,-0.21394 -0.195337,-0.32556 -0.130224,-0.11472 -0.341064,-0.11472 -0.319361,0 -0.511597,0.25734 -0.189136,0.25425 -0.223242,0.72864 z m 0.133327,-2.68511 v 0.15503 l -0.982886,0.99839 -0.201538,-0.16123 0.641821,-0.99219 z m 3.485058,3.94395 q -0.198438,0.20774 -0.365869,0.32556 -0.164331,0.11782 -0.362769,0.18604 -0.198437,0.0651 -0.437182,0.0651 -0.638721,0 -0.964283,-0.38137 -0.325561,-0.38448 -0.325561,-1.13172 0,-0.46198 0.164331,-0.81545 0.167431,-0.35347 0.474389,-0.5457 0.306958,-0.19224 0.706934,-0.19224 0.313159,0 0.533301,0.0992 0.220141,0.0992 0.350366,0.27285 0.133325,0.17053 0.204639,0.43408 0.07441,0.26045 0.08372,0.68213 h -1.95337 v 0.0558 q 0,0.36587 0.08062,0.61702 0.08371,0.24805 0.269751,0.39067 0.189135,0.13953 0.489892,0.13953 0.254248,0 0.455786,-0.093 0.204639,-0.0961 0.406177,-0.31006 z m -0.520899,-1.25884 q -0.0186,-0.33486 -0.08371,-0.5457 -0.06511,-0.21394 -0.195337,-0.32556 -0.130225,-0.11472 -0.341065,-0.11472 -0.31936,0 -0.511596,0.25734 -0.189136,0.25425 -0.223243,0.72864 z"
         id="text9"
         aria-label="Partie triée" /></g><g
       id="g5"
       inkscape:label="partie non triée"
       transform="translate(-36.729291,-113.90238)"
       style="display:inline"><path
         style="font-size:6.35px;font-family:Cambria;-inkscape-font-specification:Cambria;stroke-width:0.9;stroke-linecap:square;stroke-linejoin:round;paint-order:markers fill stroke"
         d="m 79.523338,154.78506 q 0,0.18293 0.0186,0.29145 0.0217,0.10852 0.06201,0.17363 0.04341,0.062 0.114721,0.0992 0.07131,0.0341 0.223242,0.0682 v 0.15192 H 78.58076 v -0.15192 q 0.192237,-0.0496 0.257349,-0.10853 0.06511,-0.062 0.08372,-0.17363 0.0217,-0.11162 0.0217,-0.34106 v -2.68201 q 0,-0.21394 -0.0155,-0.31006 -0.0155,-0.0992 -0.05271,-0.15193 -0.03411,-0.0558 -0.09302,-0.0868 -0.05891,-0.0341 -0.201538,-0.0744 v -0.15193 h 1.537891 q 0.725537,0 1.079004,0.27906 0.356567,0.27595 0.356567,0.84336 0,0.32246 -0.111621,0.57981 -0.111621,0.25734 -0.31626,0.42168 -0.204638,0.16433 -0.483691,0.23564 -0.279053,0.0713 -0.586011,0.0713 -0.344165,0 -0.533301,-0.0124 z m 0,-1.28675 h 0.359668 q 0.350366,0 0.576709,-0.0899 0.229444,-0.093 0.350366,-0.30386 0.120923,-0.21394 0.120923,-0.56431 0,-0.26665 -0.07131,-0.44338 -0.07131,-0.17984 -0.198438,-0.28836 -0.124023,-0.10852 -0.297656,-0.15193 -0.173633,-0.0465 -0.378271,-0.0465 -0.306958,0 -0.461988,0.0124 z m 4.257105,1.62781 -0.04651,-0.0124 q -0.269751,0.27595 -0.508496,0.39067 -0.235645,0.11472 -0.502295,0.11472 -0.235645,0 -0.415479,-0.0899 -0.179834,-0.093 -0.275952,-0.25735 -0.09612,-0.16743 -0.09612,-0.38448 0,-0.45268 0.446484,-0.69763 0.449585,-0.24804 1.345655,-0.28835 v -0.20154 q 0,-0.32246 -0.06201,-0.5085 -0.06201,-0.18603 -0.195337,-0.27285 -0.133325,-0.0868 -0.356567,-0.0868 -0.241846,0 -0.390674,0.12712 -0.145728,0.12712 -0.220142,0.38137 h -0.406176 v -0.40307 q 0.297656,-0.15503 0.496093,-0.22635 0.198438,-0.0744 0.396875,-0.11472 0.198438,-0.0434 0.403076,-0.0434 0.306958,0 0.492994,0.0992 0.186035,0.0961 0.279052,0.29766 0.09302,0.20154 0.09302,0.60771 v 1.07901 q 0,0.22944 0.0031,0.32556 0.0031,0.093 0.0186,0.17363 0.0155,0.0806 0.04651,0.13023 0.03101,0.0465 0.08992,0.0806 0.06201,0.0341 0.198437,0.0713 v 0.15192 h -0.84956 z m -0.05271,-0.97048 q -0.629419,0.006 -0.942578,0.16743 -0.31316,0.16123 -0.31316,0.48679 0,0.17673 0.07131,0.27905 0.07131,0.10232 0.179834,0.14263 0.10852,0.0372 0.257349,0.0372 0.210839,0 0.381372,-0.10232 0.173632,-0.10232 0.269751,-0.26045 0.09612,-0.15813 0.09612,-0.31316 z m 2.198315,-1.0356 0.04341,0.009 q 0.170533,-0.20774 0.31626,-0.32556 0.145728,-0.12092 0.313159,-0.18603 0.170533,-0.0651 0.384473,-0.0651 0.179834,0 0.325561,0.0186 v 0.71313 h -0.350366 q -0.07441,-0.16743 -0.15813,-0.24184 -0.08372,-0.0775 -0.229443,-0.0775 -0.111621,0 -0.223242,0.0651 -0.108521,0.0651 -0.21084,0.18914 -0.102319,0.12402 -0.142627,0.23254 -0.03721,0.10852 -0.03721,0.25735 v 1.08521 q 0,0.28215 0.03411,0.39067 0.03411,0.10542 0.111622,0.15503 0.08061,0.0496 0.238745,0.0775 v 0.15192 h -1.249536 v -0.15192 q 0.117822,-0.0372 0.167431,-0.0651 0.05271,-0.0279 0.08992,-0.0775 0.03721,-0.0496 0.05581,-0.15193 0.0186,-0.10232 0.0186,-0.31936 v -1.35186 q 0,-0.19843 -0.0062,-0.31936 -0.0062,-0.12092 -0.04341,-0.19223 -0.03721,-0.0744 -0.114722,-0.10852 -0.07441,-0.0372 -0.21394,-0.062 v -0.16123 l 0.725537,-0.031 h 0.189136 z m 1.603003,-0.35967 q 0.15503,-0.0248 0.251148,-0.0868 0.09612,-0.062 0.148828,-0.15813 0.05581,-0.0992 0.08682,-0.24495 0.03101,-0.14883 0.06511,-0.43098 h 0.440284 v 0.76584 h 1.001489 v 0.31316 h -1.001489 v 1.37976 q 0,0.30076 0.0248,0.48059 0.02481,0.17674 0.09302,0.27906 0.06821,0.0992 0.155029,0.14262 0.08682,0.0434 0.223242,0.0434 0.124024,0 0.232544,-0.0496 0.108521,-0.0527 0.213941,-0.14883 l 0.139526,0.16744 q -0.220141,0.21394 -0.418579,0.31005 -0.195337,0.0961 -0.406177,0.0961 -0.399975,0 -0.595312,-0.23564 -0.195337,-0.23875 -0.195337,-0.74414 v -1.72083 h -0.458887 z m 3.221508,-1.37046 v 0.60152 h -0.570507 v -0.60152 z m -0.886767,4.02767 q 0.120923,-0.0372 0.170532,-0.0651 0.05271,-0.0279 0.08682,-0.0775 0.03721,-0.0496 0.05581,-0.15193 0.0217,-0.10232 0.0217,-0.31936 v -1.35186 q 0,-0.19843 -0.0062,-0.31936 -0.0062,-0.12092 -0.04341,-0.19223 -0.03721,-0.0744 -0.114722,-0.10852 -0.07441,-0.0372 -0.21394,-0.062 v -0.16433 l 0.722436,-0.0279 h 0.189136 v 2.21692 q 0,0.26665 0.02481,0.37207 0.0248,0.10232 0.09302,0.15813 0.07131,0.0527 0.229444,0.093 v 0.15192 h -1.21543 z m 4.241602,-0.37518 q -0.198438,0.20774 -0.36587,0.32557 -0.164331,0.11782 -0.362768,0.18603 -0.198438,0.0651 -0.437183,0.0651 -0.63872,0 -0.964282,-0.38137 -0.325561,-0.38447 -0.325561,-1.13171 0,-0.46199 0.164331,-0.81546 0.167431,-0.35346 0.474389,-0.5457 0.306958,-0.19224 0.706934,-0.19224 0.313159,0 0.533301,0.0992 0.220141,0.0992 0.350366,0.27285 0.133325,0.17054 0.204638,0.43409 0.07441,0.26045 0.08372,0.68212 h -1.953369 v 0.0558 q 0,0.36586 0.08062,0.61701 0.08372,0.24805 0.269751,0.39068 0.189136,0.13952 0.489893,0.13952 0.254248,0 0.455786,-0.093 0.204639,-0.0961 0.406177,-0.31005 z m -0.520899,-1.25883 q -0.0186,-0.33487 -0.08372,-0.54571 -0.06511,-0.21394 -0.195337,-0.32556 -0.130224,-0.11472 -0.341064,-0.11472 -0.31936,0 -0.511597,0.25735 -0.189135,0.25425 -0.223242,0.72864 z m 5.559351,1.78593 h -1.221631 v -0.15192 q 0.120923,-0.0372 0.173633,-0.0651 0.05271,-0.0279 0.08682,-0.0775 0.03721,-0.0496 0.05581,-0.15193 0.0217,-0.10542 0.0217,-0.31626 v -0.81235 q 0,-0.21704 -0.0124,-0.39378 -0.0124,-0.17673 -0.04341,-0.28835 -0.02791,-0.11472 -0.07131,-0.17674 -0.04031,-0.0651 -0.09922,-0.10852 -0.05581,-0.0465 -0.130225,-0.0713 -0.07441,-0.0279 -0.195337,-0.0279 -0.120922,0 -0.229443,0.0496 -0.10852,0.0465 -0.238745,0.16434 -0.130225,0.11782 -0.189136,0.23254 -0.05891,0.11472 -0.05891,0.26355 v 1.15652 q 0,0.26665 0.02481,0.37207 0.0248,0.10232 0.09302,0.15813 0.07131,0.0527 0.229444,0.093 v 0.15192 h -1.21543 v -0.15192 q 0.120923,-0.0372 0.170532,-0.0651 0.05271,-0.0279 0.08682,-0.0775 0.03721,-0.0496 0.05581,-0.15193 0.0217,-0.10232 0.0217,-0.31936 v -1.35186 q 0,-0.19843 -0.0062,-0.31936 -0.0062,-0.12092 -0.04341,-0.19223 -0.03721,-0.0744 -0.114722,-0.10852 -0.07441,-0.0372 -0.21394,-0.062 v -0.16433 l 0.725537,-0.0279 h 0.189136 l -0.03411,0.50539 0.04341,0.0124 q 0.229444,-0.23255 0.36897,-0.33177 0.142627,-0.0992 0.285254,-0.15193 0.145728,-0.0558 0.306958,-0.0558 0.167432,0 0.297656,0.0403 0.133325,0.0372 0.232544,0.11782 0.10232,0.0806 0.167432,0.20154 0.06511,0.11782 0.09612,0.28526 0.03411,0.16743 0.03411,0.42478 v 1.16892 q 0,0.21394 0.0124,0.31006 0.0124,0.0961 0.04341,0.14882 0.03101,0.0527 0.08992,0.0899 0.05891,0.0341 0.204639,0.0744 z m 1.872754,0.0496 q -0.64492,0 -0.98599,-0.37827 -0.33796,-0.38137 -0.33796,-1.12551 0,-0.5116 0.176733,-0.86506 0.179837,-0.35347 0.489897,-0.524 0.31005,-0.17364 0.70693,-0.17364 0.66352,0 1.00459,0.38758 0.34106,0.38447 0.34106,1.10691 0,0.51469 -0.17053,0.86816 -0.17053,0.35347 -0.48369,0.5302 -0.31316,0.17363 -0.74104,0.17363 z m -0.73794,-1.56889 q 0,0.63872 0.20154,0.98288 0.20464,0.34107 0.58291,0.34107 0.20774,0 0.35347,-0.0992 0.14572,-0.10232 0.23564,-0.27285 0.093,-0.17054 0.13333,-0.39378 0.0403,-0.22634 0.0403,-0.47129 0,-0.45578 -0.10232,-0.75654 -0.0992,-0.30076 -0.27285,-0.44028 -0.17363,-0.14263 -0.39687,-0.14263 -0.37517,0 -0.57671,0.32556 -0.19844,0.32556 -0.19844,0.92708 z m 5.77949,1.51928 h -1.22163 v -0.15192 q 0.12092,-0.0372 0.17363,-0.0651 0.0527,-0.0279 0.0868,-0.0775 0.0372,-0.0496 0.0558,-0.15193 0.0217,-0.10542 0.0217,-0.31626 v -0.81235 q 0,-0.21704 -0.0124,-0.39378 -0.0124,-0.17673 -0.0434,-0.28835 -0.0279,-0.11472 -0.0713,-0.17674 -0.0403,-0.0651 -0.0992,-0.10852 -0.0558,-0.0465 -0.13022,-0.0713 -0.0744,-0.0279 -0.19534,-0.0279 -0.12092,0 -0.22944,0.0496 -0.10852,0.0465 -0.23875,0.16434 -0.13022,0.11782 -0.18913,0.23254 -0.0589,0.11472 -0.0589,0.26355 v 1.15652 q 0,0.26665 0.0248,0.37207 0.0248,0.10232 0.093,0.15813 0.0713,0.0527 0.22944,0.093 v 0.15192 h -1.21543 v -0.15192 q 0.12092,-0.0372 0.17053,-0.0651 0.0527,-0.0279 0.0868,-0.0775 0.0372,-0.0496 0.0558,-0.15193 0.0217,-0.10232 0.0217,-0.31936 v -1.35186 q 0,-0.19843 -0.006,-0.31936 -0.006,-0.12092 -0.0434,-0.19223 -0.0372,-0.0744 -0.11473,-0.10852 -0.0744,-0.0372 -0.21394,-0.062 v -0.16433 l 0.72554,-0.0279 h 0.18914 l -0.0341,0.50539 0.0434,0.0124 q 0.22944,-0.23255 0.36897,-0.33177 0.14262,-0.0992 0.28525,-0.15193 0.14573,-0.0558 0.30696,-0.0558 0.16743,0 0.29766,0.0403 0.13332,0.0372 0.23254,0.11782 0.10232,0.0806 0.16743,0.20154 0.0651,0.11782 0.0961,0.28526 0.0341,0.16743 0.0341,0.42478 v 1.16892 q 0,0.21394 0.0124,0.31006 0.0124,0.0961 0.0434,0.14882 0.031,0.0527 0.0899,0.0899 0.0589,0.0341 0.20464,0.0744 z m 1.73633,-2.80913 q 0.15503,-0.0248 0.25115,-0.0868 0.0961,-0.062 0.14883,-0.15813 0.0558,-0.0992 0.0868,-0.24495 0.031,-0.14883 0.0651,-0.43098 h 0.44029 v 0.76584 h 1.00149 v 0.31316 h -1.00149 v 1.37976 q 0,0.30076 0.0248,0.48059 0.0248,0.17674 0.093,0.27906 0.0682,0.0992 0.15503,0.14262 0.0868,0.0434 0.22324,0.0434 0.12402,0 0.23254,-0.0496 0.10853,-0.0527 0.21395,-0.14883 l 0.13952,0.16744 q -0.22014,0.21394 -0.41858,0.31005 -0.19533,0.0961 -0.40617,0.0961 -0.39998,0 -0.59532,-0.23564 -0.19533,-0.23875 -0.19533,-0.74414 v -1.72083 h -0.45889 z m 3.1719,0.35967 0.0434,0.009 q 0.17053,-0.20774 0.31626,-0.32556 0.14573,-0.12092 0.31316,-0.18603 0.17053,-0.0651 0.38447,-0.0651 0.17983,0 0.32556,0.0186 v 0.71313 h -0.35037 q -0.0744,-0.16743 -0.15813,-0.24184 -0.0837,-0.0775 -0.22944,-0.0775 -0.11162,0 -0.22324,0.0651 -0.10852,0.0651 -0.21084,0.18914 -0.10232,0.12402 -0.14263,0.23254 -0.0372,0.10852 -0.0372,0.25735 v 1.08521 q 0,0.28215 0.0341,0.39067 0.0341,0.10542 0.11162,0.15503 0.0806,0.0496 0.23875,0.0775 v 0.15192 h -1.24954 v -0.15192 q 0.11782,-0.0372 0.16743,-0.0651 0.0527,-0.0279 0.0899,-0.0775 0.0372,-0.0496 0.0558,-0.15193 0.0186,-0.10232 0.0186,-0.31936 v -1.35186 q 0,-0.19843 -0.006,-0.31936 -0.006,-0.12092 -0.0434,-0.19223 -0.0372,-0.0744 -0.11473,-0.10852 -0.0744,-0.0372 -0.21394,-0.062 v -0.16123 l 0.72554,-0.031 h 0.18914 z m 2.6758,-1.73013 v 0.60152 h -0.5705 v -0.60152 z m -0.88676,4.02767 q 0.12092,-0.0372 0.17053,-0.0651 0.0527,-0.0279 0.0868,-0.0775 0.0372,-0.0496 0.0558,-0.15193 0.0217,-0.10232 0.0217,-0.31936 v -1.35186 q 0,-0.19843 -0.006,-0.31936 -0.006,-0.12092 -0.0434,-0.19223 -0.0372,-0.0744 -0.11472,-0.10852 -0.0744,-0.0372 -0.21394,-0.062 v -0.16433 l 0.72243,-0.0279 h 0.18914 v 2.21692 q 0,0.26665 0.0248,0.37207 0.0248,0.10232 0.093,0.15813 0.0713,0.0527 0.22945,0.093 v 0.15192 h -1.21543 z m 4.2416,-0.37518 q -0.19844,0.20774 -0.36587,0.32557 -0.16433,0.11782 -0.36277,0.18603 -0.19844,0.0651 -0.43718,0.0651 -0.63872,0 -0.96428,-0.38137 -0.32556,-0.38447 -0.32556,-1.13171 0,-0.46199 0.16433,-0.81546 0.16743,-0.35346 0.47439,-0.5457 0.30695,-0.19224 0.70693,-0.19224 0.31316,0 0.5333,0.0992 0.22014,0.0992 0.35037,0.27285 0.13332,0.17054 0.20464,0.43409 0.0744,0.26045 0.0837,0.68212 h -1.95337 v 0.0558 q 0,0.36586 0.0806,0.61701 0.0837,0.24805 0.26975,0.39068 0.18913,0.13952 0.48989,0.13952 0.25425,0 0.45579,-0.093 0.20464,-0.0961 0.40617,-0.31005 z m -0.5209,-1.25883 q -0.0186,-0.33487 -0.0837,-0.54571 -0.0651,-0.21394 -0.19534,-0.32556 -0.13023,-0.11472 -0.34107,-0.11472 -0.31936,0 -0.51159,0.25735 -0.18914,0.25425 -0.22324,0.72864 z m 0.13333,-2.68511 v 0.15503 l -0.98289,0.99839 -0.20154,-0.16123 0.64182,-0.99219 z m 3.48505,3.94394 q -0.19843,0.20774 -0.36586,0.32557 -0.16434,0.11782 -0.36277,0.18603 -0.19844,0.0651 -0.43719,0.0651 -0.63872,0 -0.96428,-0.38137 -0.32556,-0.38447 -0.32556,-1.13171 0,-0.46199 0.16433,-0.81546 0.16743,-0.35346 0.47439,-0.5457 0.30696,-0.19224 0.70693,-0.19224 0.31316,0 0.53331,0.0992 0.22014,0.0992 0.35036,0.27285 0.13333,0.17054 0.20464,0.43409 0.0744,0.26045 0.0837,0.68212 h -1.95337 v 0.0558 q 0,0.36586 0.0806,0.61701 0.0837,0.24805 0.26975,0.39068 0.18914,0.13952 0.4899,0.13952 0.25424,0 0.45578,-0.093 0.20464,-0.0961 0.40618,-0.31005 z m -0.52089,-1.25883 q -0.0186,-0.33487 -0.0837,-0.54571 -0.0651,-0.21394 -0.19534,-0.32556 -0.13022,-0.11472 -0.34106,-0.11472 -0.31936,0 -0.5116,0.25735 -0.18913,0.25425 -0.22324,0.72864 z"
         id="text10"
         aria-label="Partie non triée" /><rect
         style="fill:#000000;fill-opacity:0;stroke:#000000;stroke-width:0.900003;stroke-linecap:square;stroke-linejoin:round;stroke-dasharray:none;stroke-opacity:1;paint-order:markers fill stroke"
         id="rect4"
         width="83.08712"
         height="13.665644"
         x="38.684563"
         y="129.63338" /><g
         id="g6"
         inkscape:label="t[i]"
         transform="translate(15.974731)"><rect
           style="fill:#0000ff;fill-opacity:1;stroke:#000000;stroke-width:0.900005;stroke-linecap:square;stroke-linejoin:round;stroke-dasharray:none;stroke-opacity:1;paint-order:markers fill stroke"
           id="rect5"
           width="18.046995"
           height="13.665998"
           x="36.429649"
           y="129.66867" /><path
           style="font-size:6.35px;font-family:'Noto Sans Armenian';-inkscape-font-specification:'Noto Sans Armenian';fill:#ffff00;stroke-width:0.6;stroke-linecap:square;stroke-linejoin:round;paint-order:markers fill stroke"
           d="m 43.278271,137.9463 q 0.127,0 0.26035,-0.0191 0.13335,-0.0254 0.2159,-0.0508 v 0.42545 q -0.0889,0.0445 -0.254,0.0699 -0.1651,0.0318 -0.3175,0.0318 -0.2667,0 -0.4953,-0.0889 -0.22225,-0.0953 -0.36195,-0.32385 -0.1397,-0.2286 -0.1397,-0.64135 v -1.9812 h -0.4826 v -0.2667 l 0.48895,-0.22225 0.22225,-0.7239 h 0.3302 v 0.78105 h 0.98425 v 0.4318 h -0.98425 v 1.9685 q 0,0.31115 0.14605,0.46355 0.1524,0.14605 0.38735,0.14605 z m 2.546351,1.397 h -1.4224 v -5.5372 h 1.4224 v 0.4572 h -0.8763 v 4.6228 h 0.8763 z m 0.984253,-5.68325 q 0.127,0 0.22225,0.0889 0.1016,0.0825 0.1016,0.2667 0,0.1778 -0.1016,0.2667 -0.09525,0.0889 -0.22225,0.0889 -0.1397,0 -0.23495,-0.0889 -0.09525,-0.0889 -0.09525,-0.2667 0,-0.18415 0.09525,-0.2667 0.09525,-0.0889 0.23495,-0.0889 z m 0.27305,1.27635 v 3.4036 h -0.5588 v -3.4036 z m 0.698496,3.9497 h 0.8763 v -4.6228 h -0.8763 v -0.4572 h 1.4224 v 5.5372 h -1.4224 z"
           id="text21"
           aria-label="t[i]" /></g><g
         id="g7"
         inkscape:label="t[j]"
         transform="translate(31.750014)"><rect
           style="display:inline;fill:#00ffff;fill-opacity:1;stroke:#000000;stroke-width:0.900005;stroke-linecap:square;stroke-linejoin:round;stroke-dasharray:none;stroke-opacity:1;paint-order:markers fill stroke"
           id="rect6"
           width="18.046995"
           height="13.665998"
           x="38.684563"
           y="129.66838" /><path
           style="font-size:6.35px;font-family:'Noto Sans Armenian';-inkscape-font-specification:'Noto Sans Armenian';stroke-width:0.6;stroke-linecap:square;stroke-linejoin:round;paint-order:markers fill stroke"
           d="m 41.900983,137.94601 q 0.127,0 0.26035,-0.019 0.13335,-0.0254 0.2159,-0.0508 v 0.42545 q -0.0889,0.0444 -0.254,0.0699 -0.1651,0.0317 -0.3175,0.0317 -0.2667,0 -0.4953,-0.0889 -0.22225,-0.0952 -0.36195,-0.32385 -0.1397,-0.2286 -0.1397,-0.64135 v -1.9812 h -0.4826 v -0.2667 l 0.48895,-0.22225 0.22225,-0.7239 h 0.3302 v 0.78105 h 0.98425 v 0.4318 h -0.98425 v 1.9685 q 0,0.31115 0.14605,0.46355 0.1524,0.14605 0.38735,0.14605 z m 2.54635,1.397 h -1.4224 v -5.5372 h 1.4224 v 0.4572 h -0.8763 v 4.6228 h 0.8763 z m 0.984253,-5.68325 q 0.127,0 0.22225,0.0889 0.1016,0.0825 0.1016,0.2667 0,0.1778 -0.1016,0.2667 -0.09525,0.0889 -0.22225,0.0889 -0.1397,0 -0.23495,-0.0889 -0.09525,-0.0889 -0.09525,-0.2667 0,-0.18415 0.09525,-0.2667 0.09525,-0.0889 0.23495,-0.0889 z m 0.27305,1.27635 v 3.4036 h -0.5588 v -3.4036 z m 2.578096,0.9398 h 1.26365 v 0.45085 h -1.26365 v 1.3081 h -0.4572 v -1.3081 h -1.26365 v -0.45085 h 1.26365 v -1.31445 h 0.4572 z m 3.848103,2.4638 h -0.5461 v -3.16865 q 0,-0.27305 0.0063,-0.43815 0.0063,-0.1651 0.01905,-0.3429 -0.1016,0.1016 -0.18415,0.17145 -0.08255,0.0699 -0.20955,0.1778 l -0.4826,0.3937 -0.2921,-0.37465 1.22555,-0.9525 h 0.46355 z m 1.536703,0.5461 h 0.8763 v -4.6228 h -0.8763 v -0.4572 h 1.4224 v 5.5372 h -1.4224 z"
           id="text21-1"
           aria-label="t[i+1]" /></g><path
         style="fill:none;fill-opacity:1;stroke:#000000;stroke-width:0.900003;stroke-linecap:square;stroke-linejoin:round;stroke-dasharray:1.80001, 1.80001;stroke-dashoffset:0;stroke-opacity:1;marker-end:url(#ConcaveTriangle);paint-order:markers fill stroke"
         d="m 61.855028,143.66879 c 0,0 1.410498,9.24909 8.591104,9.24909 7.180606,0 8.591104,-6.32697 8.591104,-6.32697"
         id="path9"
         sodipodi:nodetypes="czc" /><path
         style="display:inline;fill:none;fill-opacity:1;stroke:#000000;stroke-width:0.900003;stroke-linecap:square;stroke-linejoin:round;stroke-dasharray:1.80001, 1.80001;stroke-dashoffset:0;stroke-opacity:1;marker-end:url(#ConcaveTriangle-5);paint-order:markers fill stroke"
         d="m 79.611134,129.03705 c 0,0 -1.410498,-9.24909 -8.591104,-9.24909 -7.180606,0 -8.591104,6.32697 -8.591104,6.32697"
         id="path9-6"
         sodipodi:nodetypes="czc" /><path
         style="fill:#000000;fill-opacity:1;stroke:#000000;stroke-width:0.600001;stroke-linecap:square;stroke-linejoin:round;stroke-dasharray:none;stroke-dashoffset:0;stroke-opacity:1;paint-order:markers fill stroke"
         d="m 121.92168,142.9172 v 15.64486"
         id="path12"
         sodipodi:nodetypes="cc" /></g><g
       id="g17"
       inkscape:label="Condition"
       style="display:inline"
       transform="translate(21.479068,-113.57285)"><rect
         style="fill:#b3b3b3;fill-opacity:1;stroke:none;stroke-width:0.600001;stroke-linecap:square;stroke-linejoin:round;stroke-dasharray:none;stroke-dashoffset:0;stroke-opacity:1;paint-order:markers fill stroke"
         id="rect16"
         width="117.938"
         height="10"
         x="-19.180067"
         y="162.74886" /><rect
         style="fill:#ffffff;fill-opacity:1;stroke:#000000;stroke-width:0.600001;stroke-linecap:square;stroke-linejoin:round;stroke-dasharray:none;stroke-dashoffset:0;stroke-opacity:1;paint-order:markers fill stroke"
         id="rect17"
         width="117.33801"
         height="10"
         x="-19.879818"
         y="162.04909" /><g
         id="text12"
         style="font-size:6.35px;font-family:Cambria;-inkscape-font-specification:Cambria;fill:#ff0000;stroke:#000000;stroke-width:0.600001;stroke-linecap:square;stroke-linejoin:round;paint-order:markers fill stroke"
         aria-label="Si t[j] &lt; t[i] Alors Echanger(t[i], t[j])"><g
           id="text22"
           style="font-family:'Noto Sans Armenian';-inkscape-font-specification:'Noto Sans Armenian';fill:#000000;stroke:none"
           aria-label="Si t[i+1] &lt; t[i] Alors Echanger(t[i], t[i+1])"><path
             style="fill:#800000;stroke-width:0.6"
             d="m -15.57341,167.67752 q 0,0.60325 -0.43815,0.9398 -0.43815,0.33655 -1.1811,0.33655 -0.381,0 -0.70485,-0.0572 -0.32385,-0.0571 -0.53975,-0.15875 v -0.5461 q 0.2286,0.1016 0.56515,0.18415 0.3429,0.0825 0.70485,0.0825 0.508,0 0.762,-0.19685 0.26035,-0.19685 0.26035,-0.5334 0,-0.22225 -0.09525,-0.37465 -0.09525,-0.1524 -0.3302,-0.2794 -0.2286,-0.13335 -0.64135,-0.2794 -0.57785,-0.20955 -0.8763,-0.51435 -0.2921,-0.3048 -0.2921,-0.83185 0,-0.36195 0.18415,-0.61595 0.18415,-0.26035 0.508,-0.40005 0.3302,-0.1397 0.75565,-0.1397 0.37465,0 0.6858,0.0699 0.31115,0.0699 0.56515,0.18415 l -0.1778,0.48895 q -0.23495,-0.1016 -0.51435,-0.17145 -0.27305,-0.0699 -0.5715,-0.0699 -0.42545,0 -0.64135,0.18415 -0.2159,0.1778 -0.2159,0.47625 0,0.2286 0.09525,0.381 0.09525,0.1524 0.31115,0.27305 0.2159,0.12065 0.5842,0.26035 0.40005,0.14605 0.6731,0.3175 0.2794,0.1651 0.4191,0.40005 0.14605,0.23495 0.14605,0.59055 z m 1.123948,-3.4671 q 0.127,0 0.22225,0.0889 0.1016,0.0825 0.1016,0.2667 0,0.1778 -0.1016,0.2667 -0.09525,0.0889 -0.22225,0.0889 -0.1397,0 -0.23495,-0.0889 -0.09525,-0.0889 -0.09525,-0.2667 0,-0.18415 0.09525,-0.2667 0.09525,-0.0889 0.23495,-0.0889 z m 0.27305,1.27635 v 3.4036 h -0.5588 v -3.4036 z"
             id="path27" /><path
             style="fill:#ff00ff;stroke-width:0.6"
             d="m -10.309264,168.49667 q 0.127,0 0.26035,-0.019 0.1333501,-0.0254 0.2159001,-0.0508 v 0.42545 q -0.0889,0.0444 -0.2540001,0.0699 -0.1651,0.0317 -0.3175,0.0317 -0.2667,0 -0.4953,-0.0889 -0.22225,-0.0952 -0.36195,-0.32385 -0.1397,-0.2286 -0.1397,-0.64135 v -1.9812 h -0.4826 v -0.2667 l 0.48895,-0.22225 0.22225,-0.7239 h 0.3302 v 0.78105 h 0.9842501 v 0.4318 h -0.9842501 v 1.9685 q 0,0.31115 0.14605,0.46355 0.1524,0.14605 0.38735,0.14605 z m 2.5463504,1.397 h -1.4224 v -5.5372 h 1.4224 v 0.4572 h -0.8763 v 4.6228 h 0.8763 z m 0.9842533,-5.68325 q 0.127,0 0.22225,0.0889 0.1016,0.0825 0.1016,0.2667 0,0.1778 -0.1016,0.2667 -0.09525,0.0889 -0.22225,0.0889 -0.1397,0 -0.23495,-0.0889 -0.09525,-0.0889 -0.09525,-0.2667 0,-0.18415 0.09525,-0.2667 0.09525,-0.0889 0.23495,-0.0889 z m 0.27305,1.27635 v 3.4036 h -0.5588 v -3.4036 z m 2.5780961,0.9398 h 1.26365 v 0.45085 h -1.26365 v 1.3081 h -0.4572 v -1.3081 h -1.26365 v -0.45085 h 1.26365 v -1.31445 h 0.4572 z m 3.84810213,2.4638 h -0.54609999 v -3.16865 q 0,-0.27305 0.00635,-0.43815 0.00635,-0.1651 0.01905,-0.3429 -0.1016,0.1016 -0.18415,0.17145 -0.08255,0.0699 -0.20954999,0.1778 l -0.48259995,0.3937 -0.2921,-0.37465 1.22554994,-0.9525 h 0.46354999 z m 1.53670407,0.5461 h 0.8763 v -4.6228 h -0.8763 v -0.4572 h 1.4224 v 5.5372 h -1.4224 z m 6.8897542,-1.2827 -2.9908499,-1.31445 v -0.3175 l 2.9908499,-1.49225 v 0.4953 l -2.3939499,1.1303 2.3939499,1.0033 z m 3.6512548,0.3429 q 0.127,0 0.26035,-0.019 0.13335,-0.0254 0.2159,-0.0508 v 0.42545 q -0.0889,0.0444 -0.254,0.0699 -0.1651,0.0317 -0.3175,0.0317 -0.2667,0 -0.4953,-0.0889 -0.22225,-0.0952 -0.36195,-0.32385 -0.1397,-0.2286 -0.1397,-0.64135 v -1.9812 h -0.4826 v -0.2667 l 0.48895,-0.22225 0.22225,-0.7239 h 0.3302 v 0.78105 h 0.98425 v 0.4318 h -0.98425 v 1.9685 q 0,0.31115 0.14605,0.46355 0.1524,0.14605 0.38735,0.14605 z m 2.546351,1.397 h -1.4224 v -5.5372 h 1.4224 v 0.4572 h -0.8763 v 4.6228 h 0.8763 z m 0.984253,-5.68325 q 0.127,0 0.22225,0.0889 0.1016,0.0825 0.1016,0.2667 0,0.1778 -0.1016,0.2667 -0.09525,0.0889 -0.22225,0.0889 -0.1397,0 -0.23495,-0.0889 -0.09525,-0.0889 -0.09525,-0.2667 0,-0.18415 0.09525,-0.2667 0.09525,-0.0889 0.23495,-0.0889 z m 0.27305,1.27635 v 3.4036 h -0.5588 v -3.4036 z m 0.698495,3.9497 h 0.8763 v -4.6228 h -0.8763 v -0.4572 h 1.4224 v 5.5372 h -1.4224 z"
             id="path28" /><path
             style="fill:#800000;stroke-width:0.6"
             d="m 23.542604,168.89037 -0.5461,-1.40335 h -1.79705 l -0.53975,1.40335 h -0.57785 l 1.77165,-4.55295 h 0.51435 l 1.7653,4.55295 z m -1.22555,-3.28295 q -0.01905,-0.0508 -0.0635,-0.18415 -0.04445,-0.13335 -0.0889,-0.27305 -0.0381,-0.14605 -0.0635,-0.22225 -0.04445,0.19685 -0.1016,0.38735 -0.05715,0.18415 -0.09525,0.2921 l -0.51435,1.3716 h 1.4351 z m 2.921001,3.28295 h -0.5588 v -4.826 h 0.5588 z m 4.038595,-1.70815 q 0,0.84455 -0.4318,1.3081 -0.42545,0.46355 -1.1557,0.46355 -0.45085,0 -0.80645,-0.2032 -0.34925,-0.20955 -0.55245,-0.60325 -0.2032,-0.40005 -0.2032,-0.9652 0,-0.84455 0.42545,-1.30175 0.42545,-0.4572 1.1557,-0.4572 0.46355,0 0.8128,0.20955 0.3556,0.2032 0.55245,0.5969 0.2032,0.38735 0.2032,0.9525 z m -2.57175,0 q 0,0.60325 0.23495,0.95885 0.2413,0.34925 0.762,0.34925 0.51435,0 0.75565,-0.34925 0.2413,-0.3556 0.2413,-0.95885 0,-0.60325 -0.2413,-0.94615 -0.2413,-0.3429 -0.762,-0.3429 -0.5207,0 -0.75565,0.3429 -0.23495,0.3429 -0.23495,0.94615 z m 5.041897,-1.75895 q 0.09525,0 0.2032,0.0127 0.1143,0.006 0.19685,0.0254 l -0.06985,0.51435 q -0.08255,-0.019 -0.18415,-0.0317 -0.09525,-0.0127 -0.18415,-0.0127 -0.26035,0 -0.48895,0.14605 -0.2286,0.1397 -0.3683,0.40005 -0.13335,0.254 -0.13335,0.5969 v 1.8161 h -0.5588 v -3.4036 h 0.4572 l 0.0635,0.6223 h 0.0254 q 0.1651,-0.2794 0.42545,-0.4826 0.26035,-0.2032 0.61595,-0.2032 z m 3.251201,2.5273 q 0,0.4953 -0.3683,0.7493 -0.3683,0.254 -0.9906,0.254 -0.3556,0 -0.61595,-0.0572 -0.254,-0.0571 -0.45085,-0.15875 v -0.508 q 0.2032,0.1016 0.48895,0.1905 0.2921,0.0825 0.59055,0.0825 0.42545,0 0.61595,-0.13335 0.1905,-0.1397 0.1905,-0.3683 0,-0.127 -0.06985,-0.2286 -0.06985,-0.1016 -0.254,-0.2032 -0.1778,-0.1016 -0.51435,-0.2286 -0.3302,-0.127 -0.56515,-0.254 -0.23495,-0.127 -0.36195,-0.3048 -0.127,-0.1778 -0.127,-0.4572 0,-0.4318 0.34925,-0.66675 0.3556,-0.23495 0.9271,-0.23495 0.31115,0 0.57785,0.0635 0.27305,0.0572 0.508,0.1651 l -0.1905,0.4445 q -0.2159,-0.0889 -0.45085,-0.1524 -0.23495,-0.0635 -0.4826,-0.0635 -0.3429,0 -0.52705,0.1143 -0.1778,0.10795 -0.1778,0.29845 0,0.1397 0.08255,0.2413 0.08255,0.0953 0.27305,0.1905 0.19685,0.0889 0.5207,0.2159 0.32385,0.12065 0.55245,0.24765 0.2286,0.127 0.34925,0.31115 0.12065,0.1778 0.12065,0.45085 z"
             id="path29" /><path
             style="fill:#ff00ff;stroke-width:0.6"
             d="m 40.084351,168.89037 h -2.533649 v -4.5339 h 2.533649 v 0.50165 h -1.96215 v 1.41605 h 1.84785 v 0.4953 h -1.84785 v 1.61925 h 1.96215 z m 2.285998,0.0635 q -0.45085,0 -0.80645,-0.18415 -0.34925,-0.18415 -0.55245,-0.5715 -0.19685,-0.38735 -0.19685,-0.9906 0,-0.62865 0.20955,-1.02235 0.20955,-0.3937 0.56515,-0.57785 0.36195,-0.18415 0.81915,-0.18415 0.26035,0 0.50165,0.0572 0.2413,0.0508 0.3937,0.127 l -0.17145,0.46355 q -0.1524,-0.0571 -0.3556,-0.10795 -0.2032,-0.0508 -0.381,-0.0508 -1.0033,0 -1.0033,1.28905 0,0.61595 0.2413,0.94615 0.24765,0.32385 0.73025,0.32385 0.2794,0 0.48895,-0.0572 0.2159,-0.0572 0.3937,-0.1397 v 0.4953 q -0.17145,0.0889 -0.381,0.13335 -0.2032,0.0508 -0.4953,0.0508 z m 2.241547,-3.47345 q 0,0.254 -0.03175,0.47625 h 0.0381 q 0.1651,-0.26035 0.4445,-0.3937 0.28575,-0.13335 0.61595,-0.13335 0.6223,0 0.93345,0.29845 0.31115,0.2921 0.31115,0.94615 v 2.21615 h -0.55245 v -2.17805 q 0,-0.81915 -0.762,-0.81915 -0.5715,0 -0.7874,0.32385 -0.20955,0.3175 -0.20955,0.9144 v 1.75895 h -0.5588 v -4.826 h 0.5588 z m 4.654547,-0.0508 q 0.6223,0 0.92075,0.27305 0.29845,0.27305 0.29845,0.86995 v 2.31775 h -0.4064 l -0.10795,-0.4826 h -0.0254 q -0.22225,0.2794 -0.4699,0.41275 -0.2413,0.13335 -0.6731,0.13335 -0.46355,0 -0.76835,-0.2413 -0.3048,-0.24765 -0.3048,-0.76835 0,-0.508 0.40005,-0.78105 0.40005,-0.2794 1.2319,-0.3048 l 0.57785,-0.0191 v -0.2032 q 0,-0.42545 -0.18415,-0.59055 -0.18415,-0.1651 -0.5207,-0.1651 -0.2667,0 -0.508,0.0825 -0.2413,0.0762 -0.45085,0.1778 l -0.17145,-0.4191 q 0.22225,-0.12065 0.52705,-0.2032 0.3048,-0.0889 0.635,-0.0889 z m 0.1651,1.8161 q -0.635,0.0254 -0.88265,0.2032 -0.2413,0.1778 -0.2413,0.50165 0,0.28575 0.17145,0.4191 0.1778,0.13335 0.45085,0.13335 0.4318,0 0.71755,-0.23495 0.28575,-0.2413 0.28575,-0.7366 v -0.3048 z m 3.746505,-1.82245 q 0.6096,0 0.92075,0.29845 0.31115,0.2921 0.31115,0.9525 v 2.21615 h -0.55245 v -2.17805 q 0,-0.81915 -0.762,-0.81915 -0.56515,0 -0.78105,0.3175 -0.2159,0.3175 -0.2159,0.9144 v 1.7653 h -0.5588 v -3.4036 h 0.45085 l 0.08255,0.46355 h 0.03175 q 0.1651,-0.2667 0.4572,-0.3937 0.2921,-0.13335 0.61595,-0.13335 z m 3.492501,0 q 0.33655,0 0.60325,0.127 0.27305,0.127 0.46355,0.38735 h 0.03175 l 0.0762,-0.45085 h 0.4445 v 3.46075 q 0,0.73025 -0.37465,1.09855 -0.3683,0.3683 -1.14935,0.3683 -0.7493,0 -1.22555,-0.2159 v -0.51435 q 0.50165,0.2667 1.2573,0.2667 0.43815,0 0.6858,-0.26035 0.254,-0.254 0.254,-0.6985 v -0.13335 q 0,-0.0762 0.0063,-0.2159 0.0063,-0.14605 0.0127,-0.2032 h -0.0254 q -0.3429,0.51435 -1.0541,0.51435 -0.6604,0 -1.03505,-0.46355 -0.3683,-0.46355 -0.3683,-1.2954 0,-0.8128 0.3683,-1.28905 0.37465,-0.4826 1.0287,-0.4826 z m 0.0762,0.4699 q -0.42545,0 -0.6604,0.3429 -0.23495,0.33655 -0.23495,0.9652 0,0.62865 0.2286,0.9652 0.23495,0.3302 0.67945,0.3302 0.51435,0 0.7493,-0.27305 0.23495,-0.2794 0.23495,-0.89535 v -0.13335 q 0,-0.6985 -0.2413,-0.99695 -0.2413,-0.3048 -0.75565,-0.3048 z m 3.937001,-0.4699 q 0.43815,0 0.7493,0.1905 0.3175,0.1905 0.4826,0.53975 0.17145,0.3429 0.17145,0.80645 v 0.33655 h -2.33045 q 0.0127,0.57785 0.2921,0.88265 0.28575,0.29845 0.79375,0.29845 0.32385,0 0.5715,-0.0572 0.254,-0.0635 0.5207,-0.1778 v 0.48895 q -0.26035,0.1143 -0.51435,0.1651 -0.254,0.0572 -0.60325,0.0572 -0.4826,0 -0.85725,-0.19685 -0.3683,-0.19685 -0.57785,-0.5842 -0.2032,-0.3937 -0.2032,-0.95885 0,-0.5588 0.18415,-0.95885 0.1905,-0.40005 0.52705,-0.61595 0.3429,-0.2159 0.79375,-0.2159 z m -0.0064,0.4572 q -0.40005,0 -0.635,0.26035 -0.2286,0.254 -0.27305,0.7112 h 1.73355 q -0.0063,-0.4318 -0.2032,-0.6985 -0.19685,-0.27305 -0.6223,-0.27305 z m 3.860798,-0.4572 q 0.09525,0 0.2032,0.0127 0.1143,0.006 0.19685,0.0254 l -0.06985,0.51435 q -0.08255,-0.019 -0.18415,-0.0317 -0.09525,-0.0127 -0.18415,-0.0127 -0.26035,0 -0.48895,0.14605 -0.2286,0.1397 -0.3683,0.40005 -0.13335,0.254 -0.13335,0.5969 v 1.8161 h -0.5588 v -3.4036 h 0.4572 l 0.0635,0.6223 h 0.0254 q 0.1651,-0.2794 0.42545,-0.4826 0.26035,-0.2032 0.61595,-0.2032 z m 0.749301,1.7272 q 0,-0.7747 0.22225,-1.49225 0.2286,-0.7239 0.7112,-1.30175 h 0.52705 q -0.4445,0.5969 -0.6731,1.31445 -0.22225,0.71755 -0.22225,1.4732 0,0.7366 0.22225,1.4478 0.2286,0.70485 0.66675,1.30175 h -0.5207 q -0.4826,-0.5588 -0.7112,-1.26365 -0.22225,-0.7112 -0.22225,-1.47955 z m 3.327391,1.3462 q 0.127,0 0.26035,-0.019 0.13335,-0.0254 0.2159,-0.0508 v 0.42545 q -0.0889,0.0444 -0.254,0.0699 -0.1651,0.0317 -0.3175,0.0317 -0.2667,0 -0.4953,-0.0889 -0.22225,-0.0952 -0.36195,-0.32385 -0.1397,-0.2286 -0.1397,-0.64135 v -1.9812 h -0.4826 v -0.2667 l 0.48895,-0.22225 0.22225,-0.7239 h 0.3302 v 0.78105 h 0.98425 v 0.4318 h -0.98425 v 1.9685 q 0,0.31115 0.14605,0.46355 0.1524,0.14605 0.38735,0.14605 z m 2.546351,1.397 h -1.4224 v -5.5372 h 1.4224 v 0.4572 h -0.8763 v 4.6228 h 0.8763 z m 0.984249,-5.68325 q 0.127,0 0.22225,0.0889 0.1016,0.0825 0.1016,0.2667 0,0.1778 -0.1016,0.2667 -0.09525,0.0889 -0.22225,0.0889 -0.1397,0 -0.23495,-0.0889 -0.09525,-0.0889 -0.09525,-0.2667 0,-0.18415 0.09525,-0.2667 0.09525,-0.0889 0.23495,-0.0889 z m 0.27305,1.27635 v 3.4036 h -0.5588 v -3.4036 z m 0.698498,3.9497 h 0.8763 v -4.6228 h -0.8763 v -0.4572 h 1.4224 v 5.5372 h -1.4224 z m 3.149607,-1.21285 q -0.08255,0.33655 -0.2413,0.7366 -0.1524,0.4064 -0.3048,0.7493 h -0.41275 q 0.0889,-0.36195 0.1778,-0.79375 0.09525,-0.4318 0.1397,-0.762 h 0.5969 z m 3.809999,0.27305 q 0.127,0 0.26035,-0.019 0.13335,-0.0254 0.2159,-0.0508 v 0.42545 q -0.0889,0.0444 -0.254,0.0699 -0.1651,0.0317 -0.3175,0.0317 -0.2667,0 -0.4953,-0.0889 -0.22225,-0.0952 -0.36195,-0.32385 -0.1397,-0.2286 -0.1397,-0.64135 v -1.9812 h -0.4826 v -0.2667 l 0.48895,-0.22225 0.22225,-0.7239 h 0.3302 v 0.78105 h 0.98425 v 0.4318 h -0.98425 v 1.9685 q 0,0.31115 0.14605,0.46355 0.1524,0.14605 0.38735,0.14605 z m 2.54635,1.397 h -1.422399 v -5.5372 h 1.422399 v 0.4572 h -0.876299 v 4.6228 h 0.876299 z m 0.98425,-5.68325 q 0.127,0 0.22225,0.0889 0.1016,0.0825 0.1016,0.2667 0,0.1778 -0.1016,0.2667 -0.09525,0.0889 -0.22225,0.0889 -0.1397,0 -0.23495,-0.0889 -0.09525,-0.0889 -0.09525,-0.2667 0,-0.18415 0.09525,-0.2667 0.09525,-0.0889 0.23495,-0.0889 z m 0.27305,1.27635 v 3.4036 h -0.5588 v -3.4036 z m 2.578098,0.9398 h 1.26365 v 0.45085 h -1.26365 v 1.3081 h -0.4572 v -1.3081 h -1.26365 v -0.45085 h 1.26365 v -1.31445 h 0.4572 z m 3.848102,2.4638 h -0.5461 v -3.16865 q 0,-0.27305 0.0063,-0.43815 0.0063,-0.1651 0.01905,-0.3429 -0.1016,0.1016 -0.18415,0.17145 -0.08255,0.0699 -0.20955,0.1778 l -0.4826,0.3937 -0.2921,-0.37465 1.22555,-0.9525 h 0.46355 z m 1.536702,0.5461 h 0.8763 v -4.6228 h -0.8763 v -0.4572 h 1.4224 v 5.5372 h -1.4224 z m 3.581407,-2.286 q 0,0.76835 -0.2286,1.47955 -0.22225,0.70485 -0.70485,1.26365 h -0.5207 q 0.43815,-0.5969 0.6604,-1.30175 0.2286,-0.7112 0.2286,-1.4478 0,-0.75565 -0.2286,-1.4732 -0.22225,-0.71755 -0.66675,-1.31445 h 0.52705 q 0.4826,0.57785 0.70485,1.30175 0.2286,0.71755 0.2286,1.49225 z"
             id="path30" /></g></g></g></g></svg>
